<svg width="64" height="64" viewBox="0 0 64 64" fill="none" xmlns="http://www.w3.org/2000/svg">
<path d="M42.6666 24.0001H37.3333V21.3334C37.3333 20.6262 37.0523 19.9479 36.5522 19.4478C36.0521 18.9477 35.3739 18.6667 34.6666 18.6667H29.3333C27.8533 18.6667 26.6666 19.8534 26.6666 21.3334V24.0001H21.3333C19.8533 24.0001 18.6666 25.1867 18.6666 26.6667V41.3334C18.6666 42.0407 18.9476 42.7189 19.4477 43.219C19.9478 43.7191 20.626 44.0001 21.3333 44.0001H42.6666C43.3739 44.0001 44.0521 43.7191 44.5522 43.219C45.0523 42.7189 45.3333 42.0407 45.3333 41.3334V26.6667C45.3333 25.9595 45.0523 25.2812 44.5522 24.7811C44.0521 24.281 43.3739 24.0001 42.6666 24.0001ZM29.3333 21.3334H34.6666V24.0001H29.3333V21.3334ZM32 28.0001C32.884 28.0001 33.7319 28.3513 34.357 28.9764C34.9821 29.6015 35.3333 30.4494 35.3333 31.3334C35.3333 32.2175 34.9821 33.0653 34.357 33.6904C33.7319 34.3156 32.884 34.6667 32 34.6667C31.1159 34.6667 30.2681 34.3156 29.6429 33.6904C29.0178 33.0653 28.6666 32.2175 28.6666 31.3334C28.6666 30.4494 29.0178 29.6015 29.6429 28.9764C30.2681 28.3513 31.1159 28.0001 32 28.0001ZM38.6666 41.3334H25.3333V39.6667C25.3333 37.8267 28.32 36.3334 32 36.3334C35.68 36.3334 38.6666 37.8267 38.6666 39.6667V41.3334Z" fill="#5885E9"/>
<rect x="1.5" y="1.5" width="61" height="61" rx="30.5" stroke="#5885E9" stroke-width="3"/>
</svg>
