<svg width="16" height="21" viewBox="0 0 16 21" fill="none" xmlns="http://www.w3.org/2000/svg">
<path d="M5 3.19031H3C1.89543 3.19031 1 4.08574 1 5.19031V17.1903C1 18.2949 1.89543 19.1903 3 19.1903H13C14.1046 19.1903 15 18.2949 15 17.1903V5.19031C15 4.08574 14.1046 3.19031 13 3.19031H11M5 3.19031C5 4.29488 5.89543 5.19031 7 5.19031H9C10.1046 5.19031 11 4.29488 11 3.19031M5 3.19031C5 2.08574 5.89543 1.19031 7 1.19031H9C10.1046 1.19031 11 2.08574 11 3.19031M8 10.1903H11M8 14.1903H11M5 10.1903H5.01M5 14.1903H5.01" stroke="#494949" stroke-width="2" stroke-linecap="round"/>
</svg>
