<svg width="64" height="64" viewBox="0 0 64 64" fill="none" xmlns="http://www.w3.org/2000/svg">
<path d="M34.6667 29.1999V26.9333C35.4 26.6221 36.1503 26.3888 36.9174 26.2333C37.6836 26.0777 38.4889 25.9999 39.3334 25.9999C39.9112 25.9999 40.4778 26.0444 41.0334 26.1333C41.5889 26.2221 42.1334 26.3333 42.6667 26.4666V28.5999C42.1334 28.3999 41.5947 28.2501 41.0507 28.1506C40.5058 28.0501 39.9334 27.9999 39.3334 27.9999C38.4889 27.9999 37.6778 28.1057 36.9 28.3173C36.1223 28.5279 35.3778 28.8221 34.6667 29.1999ZM34.6667 36.5333V34.2666C35.4 33.9555 36.1503 33.7221 36.9174 33.5666C37.6836 33.411 38.4889 33.3333 39.3334 33.3333C39.9112 33.3333 40.4778 33.3777 41.0334 33.4666C41.5889 33.5555 42.1334 33.6666 42.6667 33.7999V35.9333C42.1334 35.7333 41.5947 35.5835 41.0507 35.4839C40.5058 35.3835 39.9334 35.3333 39.3334 35.3333C38.4889 35.3333 37.6778 35.4333 36.9 35.6333C36.1223 35.8333 35.3778 36.1333 34.6667 36.5333ZM34.6667 32.8666V30.5999C35.4 30.2888 36.1503 30.0555 36.9174 29.8999C37.6836 29.7444 38.4889 29.6666 39.3334 29.6666C39.9112 29.6666 40.4778 29.711 41.0334 29.7999C41.5889 29.8888 42.1334 29.9999 42.6667 30.1333V32.2666C42.1334 32.0666 41.5947 31.9168 41.0507 31.8173C40.5058 31.7168 39.9334 31.6666 39.3334 31.6666C38.4889 31.6666 37.6778 31.7724 36.9 31.9839C36.1223 32.1946 35.3778 32.4888 34.6667 32.8666ZM24.6667 37.3333C25.7112 37.3333 26.728 37.4497 27.7174 37.6826C28.7058 37.9164 29.6889 38.2666 30.6667 38.7333V25.5999C29.7556 25.0666 28.7889 24.6666 27.7667 24.3999C26.7445 24.1333 25.7112 23.9999 24.6667 23.9999C23.8667 23.9999 23.0725 24.0777 22.284 24.2333C21.4947 24.3888 20.7334 24.6221 20 24.9333V38.1333C20.7778 37.8666 21.5503 37.6666 22.3174 37.5333C23.0836 37.3999 23.8667 37.3333 24.6667 37.3333ZM33.3334 38.7333C34.3112 38.2666 35.2947 37.9164 36.284 37.6826C37.2725 37.4497 38.2889 37.3333 39.3334 37.3333C40.1334 37.3333 40.9169 37.3999 41.684 37.5333C42.4503 37.6666 43.2223 37.8666 44 38.1333V24.9333C43.2667 24.6221 42.5058 24.3888 41.7174 24.2333C40.928 24.0777 40.1334 23.9999 39.3334 23.9999C38.2889 23.9999 37.2556 24.1333 36.2334 24.3999C35.2112 24.6666 34.2445 25.0666 33.3334 25.5999V38.7333ZM32 42.6666C30.9334 41.8221 29.7778 41.1666 28.5334 40.6999C27.2889 40.2333 26 39.9999 24.6667 39.9999C23.7334 39.9999 22.8169 40.1221 21.9174 40.3666C21.0169 40.611 20.1556 40.9555 19.3334 41.3999C18.8667 41.6444 18.4169 41.6333 17.984 41.3666C17.5503 41.0999 17.3334 40.711 17.3334 40.1999V24.1333C17.3334 23.8888 17.3947 23.6555 17.5174 23.4333C17.6392 23.211 17.8223 23.0444 18.0667 22.9333C19.0889 22.3999 20.1556 21.9999 21.2667 21.7333C22.3778 21.4666 23.5112 21.3333 24.6667 21.3333C25.9556 21.3333 27.2169 21.4999 28.4507 21.8333C29.6836 22.1666 30.8667 22.6666 32 23.3333C33.1334 22.6666 34.3169 22.1666 35.5507 21.8333C36.7836 21.4999 38.0445 21.3333 39.3334 21.3333C40.4889 21.3333 41.6223 21.4666 42.7334 21.7333C43.8445 21.9999 44.9112 22.3999 45.9334 22.9333C46.1778 23.0444 46.3614 23.211 46.484 23.4333C46.6058 23.6555 46.6667 23.8888 46.6667 24.1333V40.1999C46.6667 40.711 46.4503 41.0999 46.0174 41.3666C45.5836 41.6333 45.1334 41.6444 44.6667 41.3999C43.8445 40.9555 42.9832 40.611 42.0827 40.3666C41.1832 40.1221 40.2667 39.9999 39.3334 39.9999C38 39.9999 36.7112 40.2333 35.4667 40.6999C34.2223 41.1666 33.0667 41.8221 32 42.6666Z" fill="#9284F1"/>
<rect x="1.5" y="1.5" width="61" height="61" rx="30.5" stroke="#9284F1" stroke-width="3"/>
</svg>
