<svg width="64" height="64" viewBox="0 0 64 64" fill="none" xmlns="http://www.w3.org/2000/svg">
<path d="M32.0331 44C31.6554 44 31.3385 43.872 31.0825 43.616C30.8274 43.3609 30.6998 43.0444 30.6998 42.6667V41.1333C29.6998 40.9111 28.822 40.5222 28.0665 39.9667C27.3109 39.4111 26.6998 38.6333 26.2331 37.6333C26.0776 37.3222 26.0718 36.9947 26.2158 36.6507C26.3607 36.3058 26.622 36.0556 26.9998 35.9C27.3109 35.7667 27.6331 35.7724 27.9665 35.9173C28.2998 36.0613 28.5554 36.3 28.7331 36.6333C29.1109 37.3 29.5887 37.8058 30.1665 38.1507C30.7442 38.4947 31.4554 38.6667 32.2998 38.6667C33.2109 38.6667 33.9834 38.4613 34.6171 38.0507C35.25 37.6391 35.5665 37 35.5665 36.1333C35.5665 35.3556 35.322 34.7387 34.8331 34.2827C34.3442 33.8276 33.2109 33.3111 31.4331 32.7333C29.522 32.1333 28.2109 31.4169 27.4998 30.584C26.7887 29.7502 26.4331 28.7333 26.4331 27.5333C26.4331 26.0889 26.8998 24.9667 27.8331 24.1667C28.7665 23.3667 29.722 22.9111 30.6998 22.8V21.3333C30.6998 20.9556 30.8274 20.6387 31.0825 20.3827C31.3385 20.1276 31.6554 20 32.0331 20C32.4109 20 32.7278 20.1276 32.9838 20.3827C33.2389 20.6387 33.3665 20.9556 33.3665 21.3333V22.8C34.2109 22.9333 34.9442 23.2058 35.5665 23.6173C36.1887 24.028 36.6998 24.5333 37.0998 25.1333C37.2998 25.4222 37.3389 25.7444 37.2171 26.1C37.0945 26.4556 36.8442 26.7111 36.4665 26.8667C36.1554 27 35.8331 27.0053 35.4998 26.8827C35.1665 26.7609 34.8554 26.5444 34.5665 26.2333C34.2776 25.9222 33.9389 25.6831 33.5505 25.516C33.1611 25.3498 32.6776 25.2667 32.0998 25.2667C31.122 25.2667 30.3776 25.4836 29.8665 25.9173C29.3554 26.3502 29.0998 26.8889 29.0998 27.5333C29.0998 28.2667 29.4331 28.8444 30.0998 29.2667C30.7665 29.6889 31.922 30.1333 33.5665 30.6C35.0998 31.0444 36.2611 31.7498 37.0505 32.716C37.8389 33.6831 38.2331 34.8 38.2331 36.0667C38.2331 37.6444 37.7665 38.8444 36.8331 39.6667C35.8998 40.4889 34.7442 41 33.3665 41.2V42.6667C33.3665 43.0444 33.2389 43.3609 32.9838 43.616C32.7278 43.872 32.4109 44 32.0331 44Z" fill="#FF6442"/>
<rect x="1.5" y="1.5" width="61" height="61" rx="30.5" stroke="#FF6442" stroke-width="3"/>
</svg>
