<svg width="13" height="12" viewBox="0 0 13 12" fill="none" xmlns="http://www.w3.org/2000/svg">
<path d="M11.1667 6.66667V10C11.1667 10.3667 10.8667 10.6667 10.5 10.6667H2.5C2.13333 10.6667 1.83333 10.3667 1.83333 10V6.66667C1.83333 6.3 1.53333 6 1.16667 6C0.8 6 0.5 6.3 0.5 6.66667V10.6667C0.5 11.4 1.1 12 1.83333 12H11.1667C11.9 12 12.5 11.4 12.5 10.6667V6.66667C12.5 6.3 12.2 6 11.8333 6C11.4667 6 11.1667 6.3 11.1667 6.66667ZM7.16667 6.44667L8.42 5.19333C8.68 4.93333 9.1 4.93333 9.36 5.19333C9.62 5.45333 9.62 5.87333 9.36 6.13333L6.96667 8.52667C6.70667 8.78667 6.28667 8.78667 6.02667 8.52667L3.63333 6.13333C3.37333 5.87333 3.37333 5.45333 3.63333 5.19333C3.89333 4.93333 4.31333 4.93333 4.57333 5.19333L5.83333 6.44667V0.666667C5.83333 0.3 6.13333 0 6.5 0C6.86667 0 7.16667 0.3 7.16667 0.666667V6.44667Z" fill="white"/>
</svg>
