<svg width="64" height="64" viewBox="0 0 64 64" fill="none" xmlns="http://www.w3.org/2000/svg">
<path d="M18.6667 44C18.2889 44 17.9725 43.872 17.7174 43.616C17.4614 43.3609 17.3334 43.0444 17.3334 42.6667C17.3334 42.2889 17.4614 41.9724 17.7174 41.7173C17.9725 41.4613 18.2889 41.3333 18.6667 41.3333H45.3334C45.7112 41.3333 46.0276 41.4613 46.2827 41.7173C46.5387 41.9724 46.6667 42.2889 46.6667 42.6667C46.6667 43.0444 46.5387 43.3609 46.2827 43.616C46.0276 43.872 45.7112 44 45.3334 44H18.6667ZM21.3334 40C20.6 40 19.9725 39.7391 19.4507 39.2173C18.928 38.6947 18.6667 38.0667 18.6667 37.3333V22.6667C18.6667 21.9333 18.928 21.3053 19.4507 20.7827C19.9725 20.2609 20.6 20 21.3334 20H42.6667C43.4 20 44.028 20.2609 44.5507 20.7827C45.0725 21.3053 45.3334 21.9333 45.3334 22.6667V37.3333C45.3334 38.0667 45.0725 38.6947 44.5507 39.2173C44.028 39.7391 43.4 40 42.6667 40H21.3334ZM21.3334 37.3333H42.6667V22.6667H21.3334V37.3333Z" fill="#51C1CB"/>
<rect x="1.5" y="1.5" width="61" height="61" rx="30.5" stroke="#51C1CB" stroke-width="3"/>
</svg>
