<svg width="64" height="64" viewBox="0 0 64 64" fill="none" xmlns="http://www.w3.org/2000/svg">
<path d="M32 27C32 28.3261 31.4732 29.5979 30.5355 30.5355C29.5979 31.4732 28.3261 32 27 32C25.6739 32 24.4021 31.4732 23.4645 30.5355C22.5268 29.5979 22 28.3261 22 27C22 25.6739 22.5268 24.4021 23.4645 23.4645C24.4021 22.5268 25.6739 22 27 22C28.3261 22 29.5979 22.5268 30.5355 23.4645C31.4732 24.4021 32 25.6739 32 27ZM39 32C40.0609 32 41.0783 31.5786 41.8284 30.8284C42.5786 30.0783 43 29.0609 43 28C43 26.9391 42.5786 25.9217 41.8284 25.1716C41.0783 24.4214 40.0609 24 39 24C37.9391 24 36.9217 24.4214 36.1716 25.1716C35.4214 25.9217 35 26.9391 35 28C35 29.0609 35.4214 30.0783 36.1716 30.8284C36.9217 31.5786 37.9391 32 39 32ZM37 37.188V37C37.0014 35.9179 36.6504 34.8648 36 34H42.546C43.898 34 44.996 35.096 44.996 36.45C44.996 36.45 44.996 41 38.996 41C37.8 41 36.842 40.82 36.076 40.53C36.5537 39.6546 36.8573 38.6949 36.97 37.704C36.982 37.58 36.99 37.474 36.994 37.386L37 37.188ZM35 37C35 36.2044 34.6839 35.4413 34.1213 34.8787C33.5587 34.3161 32.7956 34 32 34H22C21.2044 34 20.4413 34.3161 19.8787 34.8787C19.3161 35.4413 19 36.2044 19 37V37.15C19 37.15 19 43 27 43C34.624 43 34.982 37.688 35 37.188V37Z" fill="#51C1CB"/>
<rect x="1.5" y="1.5" width="61" height="61" rx="30.5" stroke="#51C1CB" stroke-width="3"/>
</svg>
