<svg width="32" height="32" viewBox="0 0 32 32" fill="none" xmlns="http://www.w3.org/2000/svg">
<mask id="mask0_284_2511" style="mask-type:alpha" maskUnits="userSpaceOnUse" x="0" y="0" width="32" height="32">
<rect width="32" height="32" fill="#D9D9D9"/>
</mask>
<g mask="url(#mask0_284_2511)">
<path d="M16 29.3334L15.6667 25.3334H15.3333C12.1778 25.3334 9.5 24.2334 7.3 22.0334C5.1 19.8334 4 17.1556 4 14.0001C4 10.8445 5.1 8.16675 7.3 5.96675C9.5 3.76675 12.1778 2.66675 15.3333 2.66675C16.9111 2.66675 18.3831 2.96097 19.7493 3.54941C21.1164 4.13875 22.3169 4.94986 23.3507 5.98275C24.3836 7.01653 25.1942 8.21653 25.7827 9.58275C26.372 10.9499 26.6667 12.4223 26.6667 14.0001C26.6667 15.6667 26.3947 17.2667 25.8507 18.8001C25.3058 20.3334 24.5613 21.7556 23.6173 23.0667C22.6724 24.3779 21.5502 25.5667 20.2507 26.6334C18.9502 27.7001 17.5333 28.6001 16 29.3334ZM18.6667 24.4667C20.2444 23.1334 21.5276 21.5725 22.516 19.7841C23.5053 17.9947 24 16.0667 24 14.0001C24 11.5779 23.1613 9.52764 21.484 7.84941C19.8058 6.17208 17.7556 5.33341 15.3333 5.33341C12.9111 5.33341 10.8613 6.17208 9.184 7.84941C7.50578 9.52764 6.66667 11.5779 6.66667 14.0001C6.66667 16.4223 7.50578 18.4725 9.184 20.1507C10.8613 21.8281 12.9111 22.6667 15.3333 22.6667H18.6667V24.4667ZM15.3 21.3001C15.6778 21.3001 16 21.1667 16.2667 20.9001C16.5333 20.6334 16.6667 20.3112 16.6667 19.9334C16.6667 19.5556 16.5333 19.2334 16.2667 18.9667C16 18.7001 15.6778 18.5667 15.3 18.5667C14.9222 18.5667 14.6 18.7001 14.3333 18.9667C14.0667 19.2334 13.9333 19.5556 13.9333 19.9334C13.9333 20.3112 14.0667 20.6334 14.3333 20.9001C14.6 21.1667 14.9222 21.3001 15.3 21.3001ZM14.3333 17.0667H16.3333C16.3333 16.4001 16.4 15.9334 16.5333 15.6667C16.6667 15.4001 17.0889 14.9112 17.8 14.2001C18.2 13.8001 18.5333 13.3667 18.8 12.9001C19.0667 12.4334 19.2 11.9334 19.2 11.4001C19.2 10.2667 18.8169 9.41653 18.0507 8.84941C17.2836 8.28319 16.3778 8.00008 15.3333 8.00008C14.3556 8.00008 13.5333 8.27208 12.8667 8.81608C12.2 9.36097 11.7333 10.0223 11.4667 10.8001L13.3333 11.5334C13.4444 11.1556 13.6556 10.7832 13.9667 10.4161C14.2778 10.0499 14.7333 9.86675 15.3333 9.86675C15.9333 9.86675 16.3836 10.0334 16.684 10.3667C16.9836 10.7001 17.1333 11.0667 17.1333 11.4667C17.1333 11.8445 17.0222 12.1832 16.8 12.4827C16.5778 12.7832 16.3111 13.089 16 13.4001C15.2222 14.0667 14.7502 14.5943 14.584 14.9827C14.4169 15.3721 14.3333 16.0667 14.3333 17.0667Z" fill="#51C1CB"/>
</g>
</svg>
