<svg width="64" height="64" viewBox="0 0 64 64" fill="none" xmlns="http://www.w3.org/2000/svg">
<mask id="mask0_284_2510" style="mask-type:alpha" maskUnits="userSpaceOnUse" x="16" y="16" width="32" height="32">
<rect x="16" y="16" width="32" height="32" fill="#D9D9D9"/>
</mask>
<g mask="url(#mask0_284_2510)">
<path d="M32 45.3334L31.6667 41.3334H31.3333C28.1778 41.3334 25.5 40.2334 23.3 38.0334C21.1 35.8334 20 33.1556 20 30.0001C20 26.8445 21.1 24.1667 23.3 21.9667C25.5 19.7667 28.1778 18.6667 31.3333 18.6667C32.9111 18.6667 34.3831 18.961 35.7493 19.5494C37.1164 20.1387 38.3169 20.9499 39.3507 21.9827C40.3836 23.0165 41.1942 24.2165 41.7827 25.5827C42.372 26.9499 42.6667 28.4223 42.6667 30.0001C42.6667 31.6667 42.3947 33.2667 41.8507 34.8001C41.3058 36.3334 40.5613 37.7556 39.6173 39.0667C38.6724 40.3779 37.5502 41.5667 36.2507 42.6334C34.9502 43.7001 33.5333 44.6001 32 45.3334ZM34.6667 40.4667C36.2444 39.1334 37.5276 37.5725 38.516 35.7841C39.5053 33.9947 40 32.0667 40 30.0001C40 27.5779 39.1613 25.5276 37.484 23.8494C35.8058 22.1721 33.7556 21.3334 31.3333 21.3334C28.9111 21.3334 26.8613 22.1721 25.184 23.8494C23.5058 25.5276 22.6667 27.5779 22.6667 30.0001C22.6667 32.4223 23.5058 34.4725 25.184 36.1507C26.8613 37.8281 28.9111 38.6667 31.3333 38.6667H34.6667V40.4667ZM31.3 37.3001C31.6778 37.3001 32 37.1667 32.2667 36.9001C32.5333 36.6334 32.6667 36.3112 32.6667 35.9334C32.6667 35.5556 32.5333 35.2334 32.2667 34.9667C32 34.7001 31.6778 34.5667 31.3 34.5667C30.9222 34.5667 30.6 34.7001 30.3333 34.9667C30.0667 35.2334 29.9333 35.5556 29.9333 35.9334C29.9333 36.3112 30.0667 36.6334 30.3333 36.9001C30.6 37.1667 30.9222 37.3001 31.3 37.3001ZM30.3333 33.0667H32.3333C32.3333 32.4001 32.4 31.9334 32.5333 31.6667C32.6667 31.4001 33.0889 30.9112 33.8 30.2001C34.2 29.8001 34.5333 29.3667 34.8 28.9001C35.0667 28.4334 35.2 27.9334 35.2 27.4001C35.2 26.2667 34.8169 25.4165 34.0507 24.8494C33.2836 24.2832 32.3778 24.0001 31.3333 24.0001C30.3556 24.0001 29.5333 24.2721 28.8667 24.8161C28.2 25.361 27.7333 26.0223 27.4667 26.8001L29.3333 27.5334C29.4444 27.1556 29.6556 26.7832 29.9667 26.4161C30.2778 26.0499 30.7333 25.8667 31.3333 25.8667C31.9333 25.8667 32.3836 26.0334 32.684 26.3667C32.9836 26.7001 33.1333 27.0667 33.1333 27.4667C33.1333 27.8445 33.0222 28.1832 32.8 28.4827C32.5778 28.7832 32.3111 29.089 32 29.4001C31.2222 30.0667 30.7502 30.5943 30.584 30.9827C30.4169 31.3721 30.3333 32.0667 30.3333 33.0667Z" fill="#51C1CB"/>
</g>
<rect x="1.5" y="1.5" width="61" height="61" rx="30.5" stroke="#51C1CB" stroke-width="3"/>
</svg>
