<svg width="19" height="18" viewBox="0 0 19 18" fill="none" xmlns="http://www.w3.org/2000/svg">
<path d="M0.5 6V5.25C0.5 3.18225 2.18225 1.5 4.25 1.5H5V0.75C5 0.336 5.33525 0 5.75 0C6.16475 0 6.5 0.336 6.5 0.75V1.5H12.5V0.75C12.5 0.336 12.8352 0 13.25 0C13.6648 0 14 0.336 14 0.75V1.5H14.75C16.8177 1.5 18.5 3.18225 18.5 5.25V6H0.5ZM18.5 7.5V14.25C18.5 16.3177 16.8177 18 14.75 18H4.25C2.18225 18 0.5 16.3177 0.5 14.25V7.5H18.5ZM9.5 14.25C9.5 13.836 9.16475 13.5 8.75 13.5H5C4.58525 13.5 4.25 13.836 4.25 14.25C4.25 14.664 4.58525 15 5 15H8.75C9.16475 15 9.5 14.664 9.5 14.25ZM14.75 11.25C14.75 10.836 14.4148 10.5 14 10.5H5C4.58525 10.5 4.25 10.836 4.25 11.25C4.25 11.664 4.58525 12 5 12H14C14.4148 12 14.75 11.664 14.75 11.25Z" fill="#D8D8D8"/>
</svg>
