<svg width="64" height="64" viewBox="0 0 64 64" fill="none" xmlns="http://www.w3.org/2000/svg">
<path d="M35.1466 34.9733C34.2553 35.6919 33.1449 36.0838 32 36.0838C30.855 36.0838 29.7446 35.6919 28.8533 34.9733C28.581 34.747 28.23 34.6381 27.8774 34.6706C27.5248 34.7031 27.1996 34.8743 26.9733 35.1466C26.747 35.4189 26.6381 35.77 26.6706 36.1225C26.7031 36.4751 26.8743 36.8003 27.1466 37.0266C28.5084 38.1634 30.226 38.7861 32 38.7861C33.7739 38.7861 35.4915 38.1634 36.8533 37.0266C37.1256 36.8003 37.2968 36.4751 37.3293 36.1225C37.3618 35.77 37.253 35.4189 37.0266 35.1466C36.9146 35.0118 36.7771 34.9004 36.6219 34.8187C36.4668 34.737 36.2971 34.6867 36.1225 34.6706C35.77 34.6381 35.4189 34.747 35.1466 34.9733ZM30 29.3333C30 28.9377 29.8827 28.5511 29.6629 28.2222C29.4431 27.8933 29.1308 27.6369 28.7653 27.4855C28.3999 27.3342 27.9977 27.2946 27.6098 27.3717C27.2218 27.4489 26.8655 27.6394 26.5858 27.9191C26.306 28.1988 26.1156 28.5551 26.0384 28.9431C25.9612 29.3311 26.0008 29.7332 26.1522 30.0987C26.3036 30.4641 26.5599 30.7765 26.8888 30.9962C27.2177 31.216 27.6044 31.3333 28 31.3333C28.5304 31.3333 29.0391 31.1226 29.4142 30.7475C29.7893 30.3724 30 29.8637 30 29.3333ZM36 28H34.6666C34.313 28 33.9739 28.1404 33.7238 28.3905C33.4738 28.6405 33.3333 28.9797 33.3333 29.3333C33.3333 29.6869 33.4738 30.0261 33.7238 30.2761C33.9739 30.5261 34.313 30.6666 34.6666 30.6666H36C36.3536 30.6666 36.6927 30.5261 36.9428 30.2761C37.1928 30.0261 37.3333 29.6869 37.3333 29.3333C37.3333 28.9797 37.1928 28.6405 36.9428 28.3905C36.6927 28.1404 36.3536 28 36 28ZM32 18.6666C29.3629 18.6666 26.785 19.4486 24.5924 20.9137C22.3997 22.3788 20.6907 24.4612 19.6816 26.8975C18.6724 29.3339 18.4084 32.0147 18.9228 34.6012C19.4373 37.1876 20.7072 39.5633 22.5719 41.428C24.4366 43.2927 26.8123 44.5626 29.3988 45.0771C31.9852 45.5916 34.6661 45.3275 37.1024 44.3184C39.5388 43.3092 41.6211 41.6002 43.0862 39.4076C44.5513 37.2149 45.3333 34.637 45.3333 32C45.3333 30.249 44.9884 28.5152 44.3184 26.8975C43.6483 25.2798 42.6662 23.81 41.4281 22.5719C40.1899 21.3338 38.7201 20.3516 37.1024 19.6816C35.4847 19.0115 33.7509 18.6666 32 18.6666ZM32 42.6666C29.8903 42.6666 27.828 42.041 26.0739 40.869C24.3198 39.6969 22.9526 38.031 22.1453 36.0819C21.3379 34.1328 21.1267 31.9881 21.5383 29.919C21.9498 27.8499 22.9657 25.9492 24.4575 24.4575C25.9493 22.9657 27.8499 21.9498 29.919 21.5382C31.9881 21.1267 34.1328 21.3379 36.0819 22.1452C38.031 22.9526 39.6969 24.3198 40.869 26.0739C42.041 27.828 42.6666 29.8903 42.6666 32C42.6666 34.8289 41.5428 37.542 39.5424 39.5424C37.5421 41.5428 34.8289 42.6666 32 42.6666Z" fill="#5885E9"/>
<rect x="1.5" y="1.5" width="61" height="61" rx="30.5" stroke="#5885E9" stroke-width="3"/>
</svg>
