<svg width="86" height="102" viewBox="0 0 86 102" fill="none" xmlns="http://www.w3.org/2000/svg">
<path d="M48.7541 78.5927C69.3246 78.5927 86.0002 60.9991 86.0002 39.2964C86.0002 17.5936 69.3246 3.05176e-05 48.7541 3.05176e-05C28.1837 3.05176e-05 11.5081 17.5936 11.5081 39.2964C11.5081 60.9991 28.1837 78.5927 48.7541 78.5927Z" fill="#F2F2F2"/>
<path d="M73.0937 17.5731H4.86405C4.71774 17.5698 4.60167 17.442 4.6048 17.2876C4.60783 17.1379 4.72215 17.0173 4.86405 17.0141H73.0937C73.24 17.0174 73.3561 17.1452 73.353 17.2995C73.3499 17.4493 73.2356 17.5699 73.0937 17.5731Z" fill="#CACACA"/>
<path d="M49.8411 26.9927H30.9797C29.563 26.9927 28.4146 28.2044 28.4146 29.6991V29.6991C28.4146 31.1938 29.563 32.4054 30.9797 32.4054H49.8411C51.2578 32.4054 52.4062 31.1938 52.4062 29.6991C52.4062 28.2044 51.2578 26.9927 49.8411 26.9927Z" fill="white"/>
<path d="M18.7951 37.8181H62.0256C63.4423 37.8181 64.5908 39.0298 64.5908 40.5245C64.5908 42.0192 63.4423 43.2309 62.0256 43.2309H18.7951C17.3784 43.2309 16.23 42.0192 16.23 40.5245C16.23 39.0298 17.3784 37.8181 18.7951 37.8181Z" fill="white"/>
<path d="M18.7951 48.6436H62.0256C63.4423 48.6436 64.5908 49.8553 64.5908 51.35C64.5908 52.8446 63.4423 54.0563 62.0256 54.0563H18.7951C17.3784 54.0563 16.23 52.8446 16.23 51.35C16.23 49.8553 17.3784 48.6436 18.7951 48.6436Z" fill="white"/>
<path d="M13.4378 101.762L13.336 101.752C9.88409 101.376 6.76353 99.4171 4.80341 96.3957C4.26651 95.5539 3.83222 94.644 3.51079 93.6877L3.4799 93.5964L3.57136 93.5886C4.66337 93.4959 5.7852 93.3004 6.28356 93.2074L3.07002 92.0587L3.05016 91.958C2.85963 91.0137 3.23288 90.042 3.99282 89.5041C4.75481 88.9402 5.76528 88.9222 6.54491 89.4585C6.89479 89.6943 7.26075 89.9278 7.61462 90.1537C8.83072 90.9298 10.0882 91.7323 11.031 92.8304C12.4607 94.5288 13.0873 96.8172 12.7364 99.0583L13.4378 101.762Z" fill="#FFAE5F"/>
<path d="M25.1188 100.076L26.7025 100.076L27.4561 93.6302L25.1184 93.6303L25.1188 100.076Z" fill="#FFB8B8"/>
<path d="M25.0631 101.819L29.9336 101.819V101.754C29.9335 100.649 29.0848 99.7539 28.0378 99.7539L27.1481 99.0418L25.4882 99.754L25.063 99.754L25.0631 101.819Z" fill="#2F2E41"/>
<path d="M12.4263 95.4475L13.6931 96.4502L17.9621 91.7716L16.0922 90.2917L12.4263 95.4475Z" fill="#FFB8B8"/>
<path d="M11.3901 96.8068L15.2862 99.8904L15.3231 99.8384C15.9514 98.9548 15.7818 97.7012 14.9444 97.0383L14.6377 95.9053L12.9048 95.424L12.5647 95.1548L11.3901 96.8068Z" fill="#2F2E41"/>
<path d="M17.6913 69.8287C17.6913 69.8287 17.7787 72.345 17.889 74.3629C17.9071 74.6938 17.1722 75.0533 17.1912 75.4134C17.2038 75.6522 17.342 75.8844 17.3548 76.1335C17.3683 76.3963 17.1776 76.629 17.1912 76.9008C17.2045 77.1664 17.422 77.471 17.4352 77.7428C17.5764 80.6683 18.0884 84.1705 17.5757 85.1495C17.3231 85.632 14.1025 92.3163 14.1025 92.3163C14.1025 92.3163 15.8969 95.156 16.4096 94.2095C17.0867 92.9592 22.3053 87.1102 22.3053 85.9932C22.3053 84.8777 23.5127 76.5168 23.5127 76.5168L24.3545 81.4647L24.7405 82.445L24.6192 83.0205L24.8687 83.7972L24.8822 84.5659L25.125 85.9932C25.125 85.9932 24.3945 97.114 24.8059 97.4237C25.2186 97.7347 27.2168 98.2932 27.4526 97.7347C27.6871 97.1762 29.2138 86.1285 29.2138 86.1285C29.2138 86.1285 29.4599 81.0657 29.7265 76.3599C29.7419 76.0868 29.9239 75.7568 29.938 75.4877C29.9546 75.1754 29.8393 74.7697 29.8547 74.4668C29.8713 74.1193 30.0174 73.8745 30.0315 73.5418C30.1405 70.9712 29.5289 67.8409 29.3341 67.5326C28.7458 66.6023 28.2165 65.8585 28.2165 65.8585C28.2165 65.8585 20.2928 63.1118 18.1754 65.9028L17.6913 69.8287Z" fill="#090D14"/>
<path d="M25.5938 43.954L22.4527 43.2912L20.9869 45.39C18.2517 48.2275 18.2105 50.7318 18.6987 54.7459V60.3798L18.3453 64.1566C18.3453 64.1566 17.0943 66.9174 18.3846 67.5602C19.675 68.203 28.1505 68.1482 28.9597 67.8916C29.7689 67.635 29.0675 67.32 28.855 66.1241C28.4559 63.8778 28.7229 64.9614 28.7503 64.2462C29.1442 53.9868 28.2268 49.7749 28.1337 48.6678L26.5362 45.611L25.5938 43.954Z" fill="#3E5294"/>
<path d="M42.1496 52.2256C41.8222 52.88 41.054 53.1305 40.4337 52.7851C40.3676 52.7483 40.3047 52.7054 40.2457 52.6569L33.4622 57.2012L33.4817 54.727L40.0714 50.6924C40.5408 50.1372 41.3479 50.0886 41.8742 50.5838C42.3145 50.9981 42.4284 51.6769 42.1496 52.2256Z" fill="#FFB8B8"/>
<path d="M23.1141 46.819L22.3418 46.7326C21.6282 46.6545 20.9281 46.977 20.4972 47.5821C20.3321 47.8116 20.2136 48.0745 20.1489 48.3544L20.1485 48.3566C19.9547 49.1991 20.2586 50.082 20.9195 50.597L23.5869 52.6718C25.4588 55.3404 28.9768 57.1109 33.1035 58.5492L39.5178 54.3463L37.249 51.4473L32.8494 53.935L26.3096 48.5938L26.3058 48.5906L23.8168 46.8987L23.1141 46.819Z" fill="#3E5294"/>
<path d="M24.5326 42.3264C26.5556 42.3264 28.1956 40.5962 28.1956 38.4618C28.1956 36.3274 26.5556 34.5972 24.5326 34.5972C22.5096 34.5972 20.8696 36.3274 20.8696 38.4618C20.8696 40.5962 22.5096 42.3264 24.5326 42.3264Z" fill="#FFB8B8"/>
<path d="M24.6173 42.3272C24.5878 42.3282 24.5582 42.3289 24.5286 42.3297C24.516 42.3644 24.5023 42.3987 24.4866 42.4324L24.6173 42.3272Z" fill="#2F2E41"/>
<path d="M25.6223 38.5689C25.628 38.607 25.6367 38.6444 25.6483 38.681C25.6435 38.6427 25.6348 38.6051 25.6223 38.5689Z" fill="#2F2E41"/>
<path d="M28.2422 34.7624C28.0914 35.2564 27.9569 34.6298 27.4609 34.7425C26.8642 34.8781 26.1699 34.8315 25.6813 34.4457C24.9533 33.8821 24.0098 33.7304 23.1557 34.0395C22.3196 34.3516 20.919 34.5716 20.7011 35.4786C20.6254 35.7939 20.5953 36.136 20.4118 36.3973C20.2513 36.6258 19.998 36.756 19.7862 36.9318C19.071 37.5255 19.6176 39.2122 19.9561 40.1035C20.2946 40.9947 21.0711 41.6439 21.9248 41.9765C22.7508 42.2983 23.6472 42.355 24.5284 42.3297C24.6816 41.9104 24.6154 41.426 24.489 40.9913C24.3521 40.5207 24.1494 40.0664 24.0922 39.5779C24.035 39.0893 24.1606 38.5343 24.5489 38.2613C24.9058 38.0104 25.4866 38.1632 25.6224 38.5689C25.5431 38.0617 26.0301 37.5709 26.5323 37.4846C27.0714 37.3919 27.6105 37.5973 28.148 37.6995C28.6856 37.8017 28.4948 35.414 28.2422 34.7624Z" fill="#2F2E41"/>
<path d="M48.7284 44.8545C49.0699 40.5015 46.002 36.6806 41.8761 36.3203C37.7502 35.9601 34.1287 39.1968 33.7872 43.5498C33.4458 47.9029 36.5136 51.7237 40.6396 52.084C44.7655 52.4443 48.387 49.2075 48.7284 44.8545Z" fill="#5885E9"/>
<path d="M43.2268 40.907L41.2577 42.9845L39.2886 40.907C38.9699 40.5707 38.4531 40.5707 38.1343 40.907C37.8156 41.2433 37.8156 41.7886 38.1343 42.1249L40.1034 44.2024L38.1343 46.2799C37.8159 46.6165 37.8164 47.1617 38.1354 47.4977C38.454 47.8332 38.97 47.8332 39.2886 47.4977L41.2577 45.4202L43.2268 47.4977C43.5459 47.8337 44.0627 47.8332 44.3811 47.4966C44.6992 47.1604 44.6992 46.616 44.3811 46.2799L42.412 44.2024L44.3811 42.1249C44.6999 41.7886 44.6999 41.2433 44.3811 40.907C44.0624 40.5707 43.5456 40.5707 43.2268 40.907Z" fill="white"/>
<path d="M38.3039 37.555C38.5248 38.2573 38.1643 39.0156 37.4987 39.2487C37.4277 39.2736 37.3548 39.2917 37.2808 39.3031L35.6926 47.6136L34.0139 45.8858L35.8165 38.0758C35.7617 37.334 36.2872 36.6858 36.9903 36.628C37.5785 36.5797 38.1216 36.9629 38.3039 37.555Z" fill="#FFB8B8"/>
<path d="M21.4273 48.3042L20.8336 48.8324C20.2862 49.3216 20.022 50.0779 20.1376 50.8249C20.1803 51.1095 20.278 51.3817 20.4247 51.6247L20.4259 51.6266C20.868 52.3573 21.6822 52.7372 22.492 52.5906L25.7577 51.9963C28.8789 52.4186 32.5253 50.966 36.366 48.82L37.932 41.0268L34.3785 40.7471L33.0341 45.8189L24.8535 47.1001L24.8487 47.1008L21.9683 47.8245L21.4273 48.3042Z" fill="#3E5294"/>
<path d="M40.0229 101.952L0.174035 102C0.0776077 102 -0.000311403 101.917 9.35736e-07 101.815C0.000310342 101.714 0.0780461 101.632 0.174035 101.632L40.0229 101.584C40.1194 101.584 40.1973 101.667 40.197 101.769C40.1967 101.87 40.1189 101.952 40.0229 101.952Z" fill="#CACACA"/>
<path d="M8.32575 14.0328C9.01062 14.0328 9.56582 13.434 9.56582 12.6953C9.56582 11.9566 9.01062 11.3578 8.32575 11.3578C7.64089 11.3578 7.08569 11.9566 7.08569 12.6953C7.08569 13.434 7.64089 14.0328 8.32575 14.0328Z" fill="#3E5294"/>
<path d="M12.6094 14.0328C13.2943 14.0328 13.8495 13.434 13.8495 12.6953C13.8495 11.9566 13.2943 11.3578 12.6094 11.3578C11.9246 11.3578 11.3694 11.9566 11.3694 12.6953C11.3694 13.434 11.9246 14.0328 12.6094 14.0328Z" fill="#3E5294"/>
<path d="M16.8931 14.0328C17.578 14.0328 18.1332 13.434 18.1332 12.6953C18.1332 11.9566 17.578 11.3578 16.8931 11.3578C16.2083 11.3578 15.6531 11.9566 15.6531 12.6953C15.6531 13.434 16.2083 14.0328 16.8931 14.0328Z" fill="#3E5294"/>
<path d="M21.7778 13.7523C21.7397 13.7523 21.7017 13.7368 21.673 13.7058L20.8363 12.8034C20.7805 12.7432 20.7805 12.6472 20.8363 12.587L21.673 11.6847C21.7298 11.6236 21.8227 11.6227 21.8803 11.6823C21.9383 11.742 21.9393 11.84 21.8826 11.901L21.1462 12.6952L21.8826 13.4894C21.9393 13.5505 21.9383 13.6485 21.8803 13.7082C21.8518 13.7377 21.8148 13.7523 21.7778 13.7523Z" fill="#3E5294"/>
<path d="M23.1838 13.7522C23.1467 13.7522 23.1097 13.7375 23.0812 13.7081C23.0233 13.6483 23.0223 13.5504 23.0789 13.4893L23.8153 12.6951L23.0789 11.9009C23.0223 11.8399 23.0233 11.7419 23.0812 11.6821C23.139 11.6223 23.2319 11.6234 23.2886 11.6845L24.1252 12.5869C24.181 12.647 24.181 12.7431 24.1252 12.8032L23.2886 13.7057C23.2599 13.7366 23.2218 13.7522 23.1838 13.7522Z" fill="#3E5294"/>
<path d="M66.957 11.5126H65.4012C65.2238 11.5126 65.0801 11.6642 65.0801 11.8514V13.4944C65.0801 13.6816 65.2238 13.8333 65.4012 13.8333H66.957C67.1345 13.8333 67.2796 13.6816 67.2796 13.4944V11.8514C67.2796 11.6642 67.1345 11.5126 66.957 11.5126Z" fill="#3E5294"/>
<path d="M63.1441 11.5126H61.5882C61.4108 11.5126 61.2671 11.6642 61.2671 11.8514V13.4944C61.2671 13.6816 61.4108 13.8333 61.5882 13.8333H63.1441C63.3215 13.8333 63.4667 13.6816 63.4667 13.4944V11.8514C63.4667 11.6642 63.3215 11.5126 63.1441 11.5126Z" fill="#3E5294"/>
<path d="M70.5498 11.59H68.994C68.8166 11.59 68.6729 11.7416 68.6729 11.9288V13.5718C68.6729 13.759 68.8166 13.9106 68.994 13.9106H70.5498C70.7273 13.9106 70.8724 13.759 70.8724 13.5718V11.9288C70.8724 11.7416 70.7273 11.59 70.5498 11.59Z" fill="#3E5294"/>
<path d="M47.0989 12.215H34.6625C34.4455 12.215 34.271 12.4007 34.271 12.6281C34.271 12.8555 34.4455 13.0412 34.6625 13.0412H47.0989C47.3145 13.0412 47.4904 12.8555 47.4904 12.6281C47.4904 12.4007 47.3145 12.215 47.0989 12.215Z" fill="#3E5294"/>
</svg>
