<svg width="129" height="102" viewBox="0 0 129 102" fill="none" xmlns="http://www.w3.org/2000/svg">
<path d="M3.23531 83.4514L52.5825 83.4514V81.6092C52.5823 81.4464 52.4971 81.2903 52.3457 81.1752C52.1944 81.0601 51.9891 80.9954 51.775 80.9952L4.04281 80.9952C3.82872 80.9954 3.62347 81.0601 3.47209 81.1752C3.32071 81.2903 3.23555 81.4464 3.23531 81.6092V83.4514Z" fill="#5885E9"/>
<path d="M65.7941 8.58958C65.4101 8.89388 65.0319 9.20731 64.6698 9.52124L64.98 9.72809C65.5221 9.25802 66.0978 8.79187 66.6836 8.34842L66.3924 8.12611C66.1913 8.27835 65.9919 8.43284 65.7941 8.58958ZM68.2349 6.82249L68.5055 7.05944C69.1303 6.64659 69.7806 6.2459 70.4383 5.86807L70.1896 5.61778C69.5246 5.99984 68.8669 6.40509 68.2349 6.82249ZM63.0751 11.0013C62.5672 11.5071 62.0768 12.0318 61.6173 12.5609L61.9617 12.7337C62.4159 12.2107 62.9008 11.6919 63.4032 11.1918L63.0751 11.0013ZM72.2485 4.51773L72.4742 4.78051C73.1659 4.43726 73.8824 4.10802 74.6036 3.80201L74.4027 3.528C73.673 3.83761 72.9482 4.17055 72.2485 4.51773ZM60.304 14.1933C59.8929 14.7461 59.5019 15.3172 59.1417 15.8907L59.5138 16.026C59.8702 15.4588 60.2569 14.8942 60.6632 14.3476L60.304 14.1933ZM76.6414 2.65385L76.8169 2.9378C77.5641 2.67049 78.3327 2.41964 79.101 2.19231L78.9511 1.89995C78.1743 2.1299 77.3972 2.38349 76.6414 2.65385ZM58.1346 17.6477C57.8269 18.2401 57.5427 18.8474 57.2901 19.4529L57.6835 19.5478C57.9332 18.9492 58.2142 18.3487 58.5185 17.763L58.1346 17.6477ZM81.3243 1.26835L81.4473 1.56785C82.2359 1.38104 83.0428 1.21249 83.8453 1.06729L83.7498 0.761938C82.9381 0.908906 82.1221 1.07934 81.3243 1.26835ZM56.611 21.2973C56.4132 21.9159 56.2412 22.5467 56.1 23.1725L56.5067 23.2255C56.6463 22.6068 56.8162 21.983 57.0118 21.3713L56.611 21.2973ZM86.2154 0.382869L86.2833 0.692338C87.0983 0.588877 87.928 0.505555 88.7497 0.444673L88.7099 0.132388C87.8786 0.193951 87.0394 0.278177 86.2154 0.382869ZM55.759 25.0697C55.6742 25.7015 55.617 26.344 55.5889 26.9796L56.0013 26.9901C56.0291 26.3617 56.0857 25.7264 56.1695 25.1015L55.759 25.0697ZM91.2215 0.0117578L91.2335 0.325357C92.0594 0.307208 92.8967 0.310346 93.7224 0.334892L93.7384 0.021295C92.9034 -0.00344007 92.0567 -0.00663759 91.2215 0.0117578ZM55.5905 28.8936C55.6195 29.5289 55.6777 30.1713 55.7634 30.8028L56.1737 30.7706C56.0889 30.1461 56.0316 29.511 56.0028 28.8828L55.5905 28.8936ZM96.2493 0.161583L96.2054 0.47345C97.026 0.540657 97.8553 0.630488 98.6699 0.740378L98.7419 0.431536C97.9181 0.320269 97.0794 0.229507 96.2493 0.161583ZM56.1067 32.6982C56.2488 33.3244 56.4214 33.9545 56.6193 34.571L57.0202 34.4967C56.8245 33.8871 56.6539 33.264 56.5131 32.6447L56.1067 32.6982ZM101.205 0.830878L101.105 1.13517C101.908 1.28728 102.714 1.46254 103.5 1.65618L103.627 1.35775C102.832 1.16186 102.017 0.984581 101.205 0.830878ZM57.2989 36.4123C57.552 37.0174 57.836 37.6234 58.143 38.2134L58.5265 38.098C58.2232 37.5146 57.9423 36.9154 57.692 36.3172L57.2989 36.4123ZM105.996 2.01016L105.842 2.30121C106.61 2.5359 107.376 2.79389 108.121 3.06816L108.301 2.78579C107.548 2.5083 106.772 2.24732 105.996 2.01016ZM59.1473 39.9653C59.5074 40.5389 59.8986 41.11 60.3096 41.6629L60.6687 41.5084C60.2623 40.9618 59.8758 40.3972 59.5195 39.8301L59.1473 39.9653ZM110.527 3.67958L110.321 3.95195C111.038 4.26435 111.75 4.59969 112.436 4.94856L112.666 4.68774C111.971 4.33488 111.252 3.99576 110.527 3.67958ZM61.6234 43.2951C62.0837 43.825 62.5744 44.3498 63.0818 44.8545L63.4096 44.664C62.908 44.1649 62.4228 43.6462 61.9678 43.1222L61.6234 43.2951ZM114.708 5.80504L114.456 6.05332C115.109 6.43683 115.753 6.84301 116.372 7.26049L116.646 7.02585C116.02 6.60366 115.368 6.19293 114.708 5.80504ZM64.6774 46.3342C65.2281 46.8106 65.8083 47.2795 66.4018 47.7278L66.6925 47.5052C66.1055 47.0619 65.5319 46.5982 64.9874 46.127L64.6774 46.3342ZM118.176 8.56399C118.757 9.01213 119.324 9.48059 119.861 9.95632L120.174 9.75195C119.63 9.27073 119.057 8.79701 118.47 8.34376L118.176 8.56399ZM121.417 11.4328C121.912 11.9371 122.389 12.46 122.836 12.9872L123.183 12.8173C122.731 12.2841 122.248 11.7552 121.748 11.2452L121.417 11.4328ZM124.11 14.6123C124.508 15.1621 124.886 15.7293 125.233 16.2983L125.607 16.1663C125.256 15.5908 124.874 15.017 124.472 14.4611L124.11 14.6123ZM126.2 18.0398C126.496 18.6267 126.767 19.2285 127.008 19.8281L127.403 19.7365C127.159 19.1299 126.884 18.5214 126.586 17.9278L126.2 18.0398ZM127.654 21.6549C127.84 22.2676 128.002 22.8923 128.133 23.5112L128.54 23.4614C128.408 22.8354 128.245 22.2036 128.056 21.584L127.654 21.6549ZM128.444 25.3885C128.52 26.014 128.568 26.6496 128.588 27.2777L129 27.2704C128.98 26.6351 128.932 25.9923 128.855 25.3598L128.444 25.3885ZM128.561 29.1702C128.524 29.7987 128.458 30.4337 128.365 31.0573L128.775 31.0927C128.869 30.462 128.936 29.8199 128.973 29.1844L128.561 29.1702ZM128 32.9299C127.85 33.549 127.671 34.1713 127.467 34.7795L127.867 34.8572C128.073 34.242 128.255 33.6127 128.406 32.9865L128 32.9299ZM126.768 36.5972C126.509 37.1947 126.219 37.7926 125.906 38.3743L126.288 38.4929C126.604 37.9046 126.898 37.2999 127.16 36.6955L126.768 36.5972ZM124.885 40.1021C124.521 40.6659 124.126 41.2271 123.711 41.7704L124.068 41.9279C124.487 41.3784 124.887 40.8108 125.256 40.2406L124.885 40.1021ZM122.388 43.3731C121.925 43.8928 121.433 44.4074 120.924 44.9028L121.249 45.096C121.764 44.595 122.262 44.0745 122.73 43.549L122.388 43.3731Z" fill="#E6E6E6"/>
<path d="M73.0003 63.4652C74.5001 63.4621 75.9595 63.0953 77.1662 62.418C78.3729 61.7407 79.264 60.7883 79.7098 59.6993C84.4694 61.0834 89.7227 61.1293 94.5228 59.8285C99.323 58.5278 103.354 55.966 105.89 52.605C108.426 49.2439 109.3 45.3045 108.354 41.4969C107.408 37.6892 104.705 34.2637 100.731 31.8377C96.7578 29.4117 91.7754 28.1447 86.6821 28.2651C81.5887 28.3855 76.7194 29.8854 72.9518 32.4944C69.1841 35.1034 66.7658 38.65 66.1328 42.495C65.4998 46.34 66.6937 50.2304 69.4993 53.4652C68.153 54.0521 67.0994 54.9608 66.5022 56.05C65.905 57.1391 65.7977 58.3478 66.1969 59.4881C66.5962 60.6285 67.4796 61.6366 68.7099 62.3558C69.9402 63.075 71.4484 63.465 73.0003 63.4652ZM79.4737 59.3362L79.4201 59.4817C78.9419 60.7783 77.8061 61.8774 76.2624 62.5372C74.7187 63.1971 72.8936 63.3637 71.1884 63.0004C69.4832 62.6371 68.0376 61.7737 67.1694 60.6C66.3013 59.4263 66.0818 58.0384 66.5591 56.7417C66.8038 56.0826 67.2206 55.4677 67.7844 54.9336C68.3483 54.3996 69.0478 53.9573 69.8412 53.6332L70.0164 53.562L69.9055 53.4367C67.0997 50.2651 65.8814 46.4338 66.4716 42.6377C67.0618 38.8417 69.4214 35.3321 73.1226 32.7455C76.8238 30.1589 81.6213 28.6665 86.6454 28.539C91.6694 28.4115 96.5872 29.6573 100.507 32.0506C104.427 34.4438 107.089 37.8259 108.01 41.5836C108.932 45.3413 108.052 49.2258 105.531 52.5326C103.009 55.8395 99.0128 58.3496 94.2662 59.608C89.5195 60.8663 84.337 60.7895 79.6585 59.3915L79.4737 59.3362Z" fill="#3F3D56"/>
<path d="M75.7515 42.8726L98.9788 42.8726C99.1213 42.8726 99.2624 42.8513 99.3941 42.8098C99.5257 42.7684 99.6454 42.7076 99.7461 42.6309C99.8469 42.5543 99.9268 42.4634 99.9814 42.3632C100.036 42.2631 100.064 42.1558 100.064 42.0474C100.064 41.9391 100.036 41.8318 99.9814 41.7317C99.9268 41.6315 99.8469 41.5406 99.7461 41.464C99.6454 41.3873 99.5257 41.3265 99.3941 41.2851C99.2624 41.2436 99.1213 41.2223 98.9788 41.2223L75.7515 41.2223C75.609 41.2223 75.4678 41.2436 75.3362 41.2851C75.2045 41.3265 75.0849 41.3873 74.9841 41.464C74.8834 41.5406 74.8034 41.6315 74.7489 41.7317C74.6944 41.8318 74.6663 41.9391 74.6663 42.0474C74.6663 42.1558 74.6944 42.2631 74.7489 42.3632C74.8034 42.4634 74.8834 42.5543 74.9841 42.6309C75.0849 42.7076 75.2045 42.7684 75.3362 42.8098C75.4678 42.8513 75.609 42.8726 75.7515 42.8726Z" fill="#5885E9"/>
<path d="M75.7515 45.3959L98.9788 45.3959C99.1213 45.3959 99.2624 45.3745 99.3941 45.3331C99.5257 45.2916 99.6454 45.2308 99.7461 45.1542C99.8469 45.0776 99.9268 44.9866 99.9814 44.8865C100.036 44.7864 100.064 44.6791 100.064 44.5707C100.064 44.4623 100.036 44.355 99.9814 44.2549C99.9268 44.1548 99.8469 44.0638 99.7461 43.9872C99.6454 43.9106 99.5257 43.8498 99.3941 43.8083C99.2624 43.7669 99.1213 43.7455 98.9788 43.7455L75.7515 43.7455C75.609 43.7455 75.4678 43.7669 75.3362 43.8083C75.2045 43.8498 75.0849 43.9106 74.9841 43.9872C74.8834 44.0638 74.8034 44.1548 74.7489 44.2549C74.6944 44.355 74.6663 44.4623 74.6663 44.5707C74.6663 44.6791 74.6944 44.7864 74.7489 44.8865C74.8034 44.9866 74.8834 45.0776 74.9841 45.1542C75.0849 45.2308 75.2045 45.2916 75.3362 45.3331C75.4678 45.3745 75.609 45.3959 75.7515 45.3959Z" fill="#5885E9"/>
<path d="M75.747 47.9191L98.9743 47.9191C99.2619 47.9188 99.5375 47.8318 99.7407 47.677C99.944 47.5223 100.058 47.3126 100.058 47.0939C100.058 46.8752 99.944 46.6655 99.7407 46.5108C99.5375 46.356 99.2619 46.269 98.9743 46.2687L75.747 46.2687C75.4591 46.2687 75.1831 46.3556 74.9796 46.5104C74.7761 46.6651 74.6617 46.875 74.6617 47.0939C74.6617 47.3128 74.7761 47.5227 74.9796 47.6774C75.1831 47.8322 75.4592 47.9191 75.747 47.9191Z" fill="#5885E9"/>
<path d="M4.04293 102H51.7751C52.013 102 52.2411 101.928 52.4093 101.8C52.5775 101.672 52.6721 101.499 52.6724 101.318L52.6724 81.5867C52.6721 81.4058 52.5775 81.2324 52.4093 81.1045C52.2411 80.9766 52.013 80.9047 51.7751 80.9044L4.04293 80.9044C3.80506 80.9047 3.57701 80.9766 3.40881 81.1045C3.24061 81.2324 3.14598 81.4058 3.14571 81.5867L3.14571 101.318C3.14598 101.499 3.24061 101.672 3.40881 101.8C3.57701 101.928 3.80506 102 4.04293 102ZM51.7751 81.1774C51.9179 81.1775 52.0547 81.2206 52.1556 81.2974C52.2566 81.3741 52.3133 81.4782 52.3135 81.5867L52.3135 101.318C52.3133 101.426 52.2566 101.53 52.1556 101.607C52.0547 101.684 51.9179 101.727 51.7751 101.727H4.04293C3.90021 101.727 3.76337 101.684 3.66245 101.607C3.56152 101.53 3.50476 101.426 3.5046 101.318L3.5046 81.5867C3.50476 81.4782 3.56152 81.3741 3.66245 81.2974C3.76337 81.2206 3.90021 81.1775 4.04293 81.1774L51.7751 81.1774Z" fill="#3F3D56"/>
<path d="M50.4845 83.1365C49.8708 83.1365 49.3733 82.7582 49.3733 82.2915C49.3733 81.8248 49.8708 81.4465 50.4845 81.4465C51.0982 81.4465 51.5957 81.8248 51.5957 82.2915C51.5957 82.7582 51.0982 83.1365 50.4845 83.1365Z" fill="white"/>
<path d="M47.4684 83.1365C46.8547 83.1365 46.3572 82.7582 46.3572 82.2915C46.3572 81.8248 46.8547 81.4465 47.4684 81.4465C48.0821 81.4465 48.5796 81.8248 48.5796 82.2915C48.5796 82.7582 48.0821 83.1365 47.4684 83.1365Z" fill="white"/>
<path d="M44.4523 83.1365C43.8386 83.1365 43.3411 82.7582 43.3411 82.2915C43.3411 81.8248 43.8386 81.4465 44.4523 81.4465C45.066 81.4465 45.5635 81.8248 45.5635 82.2915C45.5635 82.7582 45.066 83.1365 44.4523 83.1365Z" fill="white"/>
<path d="M41.945 53.9673H47.8148C47.9372 53.9675 48.0581 53.9466 48.1684 53.9062C48.2788 53.8657 48.3756 53.8068 48.4516 53.7338C48.5266 53.6629 48.5795 53.5799 48.6063 53.4912C48.6332 53.4025 48.6332 53.3103 48.6064 53.2216C48.0782 51.4559 48.0782 49.6224 48.6064 47.8567C48.6332 47.768 48.6332 47.6758 48.6063 47.5871C48.5795 47.4984 48.5266 47.4154 48.4516 47.3445C48.3756 47.2715 48.2788 47.2126 48.1684 47.1721C48.0581 47.1317 47.9372 47.1108 47.8148 47.111H41.945C41.7501 47.1106 41.5617 47.1639 41.4146 47.261C41.2675 47.3582 41.1716 47.4925 41.1447 47.6393C40.7697 49.562 40.7697 51.5163 41.1447 53.439C41.1716 53.5858 41.2675 53.7201 41.4146 53.8173C41.5617 53.9144 41.7501 53.9677 41.945 53.9673Z" fill="#5885E9"/>
<path d="M11.4085 68.4345H17.2783C17.4732 68.4349 17.6616 68.3815 17.8087 68.2844C17.9558 68.1873 18.0517 68.0529 18.0786 67.9062C18.4536 65.9835 18.4536 64.0292 18.0786 62.1064C18.0517 61.9597 17.9558 61.8253 17.8087 61.7282C17.6616 61.6311 17.4732 61.5778 17.2783 61.5781H11.4085C11.2861 61.5779 11.1652 61.5988 11.0549 61.6393C10.9445 61.6797 10.8477 61.7386 10.7717 61.8116C10.6967 61.8825 10.6437 61.9655 10.6169 62.0542C10.5901 62.1429 10.5901 62.2351 10.6169 62.3238C11.1451 64.0896 11.1451 65.9231 10.6169 67.6889C10.5901 67.7776 10.5901 67.8698 10.617 67.9585C10.6438 68.0472 10.6967 68.1301 10.7717 68.201C10.8477 68.274 10.9445 68.3329 11.0549 68.3734C11.1652 68.4138 11.2861 68.4347 11.4085 68.4345Z" fill="#5885E9"/>
<path d="M15.2079 62.8845C14.9798 62.7587 14.7907 62.5964 14.6539 62.409C14.5172 62.2217 14.4361 62.0138 14.4165 61.8C14.3968 61.5862 14.4391 61.3717 14.5402 61.1717C14.6413 60.9717 14.7989 60.7909 15.0019 60.6422L14.4899 44.026L17.873 44.4043L17.8373 60.7467C18.1432 61.0225 18.3055 61.374 18.2933 61.7347C18.2812 62.0954 18.0954 62.4402 17.7713 62.7037C17.4472 62.9672 17.0073 63.1312 16.5348 63.1645C16.0624 63.1978 15.5903 63.0982 15.2079 62.8845Z" fill="#FFB8B8"/>
<path d="M42.2679 46.2249C42.2084 46.2854 42.1553 46.3493 42.109 46.4161L33.2582 47.1208L30.5497 43.7451L27.6613 44.9437L31.5964 50.215L42.4523 48.1158C42.726 48.319 43.0745 48.454 43.4515 48.5028C43.8285 48.5517 44.2162 48.5121 44.5629 48.3894C44.9096 48.2666 45.199 48.0665 45.3925 47.8157C45.586 47.5648 45.6745 47.2751 45.6462 46.9851C45.6179 46.6951 45.4742 46.4185 45.2342 46.1921C44.9941 45.9657 44.6691 45.8002 44.3024 45.7177C43.9357 45.6351 43.5446 45.6395 43.1812 45.7301C42.8178 45.8207 42.4992 45.9933 42.2679 46.2249Z" fill="#FFB8B8"/>
<path d="M36.621 79.6297L38.7803 79.3099L37.0991 67.1783L33.5532 67.6503L36.621 79.6297Z" fill="#FFB8B8"/>
<path d="M40.2029 78.6123L36.0383 79.2291L36.549 81.223L43.3356 80.2179C43.2686 79.9561 43.1343 79.7068 42.9406 79.4844C42.7469 79.262 42.4974 79.0708 42.2065 78.9217C41.9156 78.7727 41.589 78.6686 41.2452 78.6155C40.9014 78.5624 40.5472 78.5613 40.2029 78.6123Z" fill="#2F2E41"/>
<path d="M21.2308 79.6695L23.4308 79.6694L24.4773 70.6035H21.2304L21.2308 79.6695Z" fill="#FFB8B8"/>
<path d="M25.0025 79.1915H20.7597V81.2228H27.6738C27.6738 80.9561 27.6047 80.6919 27.4705 80.4455C27.3362 80.199 27.1395 79.9751 26.8914 79.7864C26.6433 79.5978 26.3488 79.4482 26.0247 79.3461C25.7006 79.244 25.3533 79.1915 25.0025 79.1915Z" fill="#2F2E41"/>
<path d="M30.1693 49.1111L38.1226 68.1981C38.1226 68.1981 28.1678 73.1231 19.2924 72.0286C16.9638 64.4906 17.1155 57.4491 20.8141 51.1176L30.1693 49.1111Z" fill="#090D14"/>
<path d="M21.7963 39.2701C18.6692 39.2701 16.1343 37.3425 16.1343 34.9646C16.1343 32.5867 18.6692 30.6591 21.7963 30.6591C24.9233 30.6591 27.4583 32.5867 27.4583 34.9646C27.4583 37.3425 24.9233 39.2701 21.7963 39.2701Z" fill="#2F2E41"/>
<path d="M22.6886 39.5586C20.2545 39.5586 18.2813 38.0581 18.2813 36.2071C18.2813 34.3562 20.2545 32.8557 22.6886 32.8557C25.1227 32.8557 27.0959 34.3562 27.0959 36.2071C27.0959 38.0581 25.1227 39.5586 22.6886 39.5586Z" fill="#FFB8B8"/>
<path d="M30.5298 42.4532C30.5678 42.6333 29.93 44.4597 29.93 44.4597L31.5115 51.9092L20.8148 51.6648L14.8179 42.6357C14.6039 42.5645 15.803 41.5106 16.6169 41.0852C17.7397 40.4984 30.2988 41.3583 30.5298 42.4532Z" fill="#3E5294"/>
<path d="M29.9294 42.5445L30.5291 42.3621C30.5291 42.3621 32.688 44.9158 31.9684 45.1894C31.2487 45.463 29.4497 46.1014 29.4497 46.1014L29.9294 42.5445Z" fill="#3E5294"/>
<path d="M16.2563 41.906L14.817 42.6356C14.817 42.6356 13.6176 46.1926 14.817 46.1014C16.0164 46.0102 18.7749 46.5574 18.8949 46.375C19.0148 46.1926 16.2563 41.906 16.2563 41.906Z" fill="#3E5294"/>
<path d="M22.4794 35.6042C20.2019 35.6042 18.3557 34.7618 18.3557 33.7227C18.3557 32.6836 20.2019 31.8413 22.4794 31.8413C24.7568 31.8413 26.603 32.6836 26.603 33.7227C26.603 34.7618 24.7568 35.6042 22.4794 35.6042Z" fill="#2F2E41"/>
<path d="M21.8776 31.4198C22.1796 31.2492 22.3949 31.0045 22.4872 30.7272C22.5795 30.4498 22.5431 30.1568 22.3842 29.8974C22.1307 29.5121 21.6313 29.2616 21.154 29.0294L19.2068 28.0819C18.3933 27.6861 17.5519 27.2817 16.6006 27.1552C15.0413 26.9478 13.4307 27.5512 12.4039 28.4674C11.3772 29.3835 10.8571 30.5687 10.5612 31.7511C10.2653 32.9336 10.1705 34.1413 9.87041 35.3232C9.40505 37.1559 8.40734 38.9539 6.67758 40.2783C4.94783 41.6027 2.41965 42.3935 0.000181198 42.0787C1.06524 42.8236 2.43436 43.2678 3.87853 43.337C5.31772 43.4007 6.75364 43.1754 8.0422 42.6839C9.23228 42.237 10.2903 41.6106 11.1518 40.8428C12.0132 40.0749 12.6602 39.1818 13.0532 38.2178C13.8409 36.2459 13.5101 34.1089 14.1113 32.0994C14.349 31.3047 14.7782 30.4882 15.6525 30.0167C16.5268 29.5453 17.9372 29.5888 18.4975 30.2836C17.9879 30.1573 17.4874 30.6469 17.6459 31.0362C17.8044 31.4255 18.3862 31.6388 18.9221 31.6348C19.458 31.6307 19.9637 31.4601 20.4605 31.3071C20.9572 31.1541 21.4882 31.0134 22.0185 31.0726" fill="#2F2E41"/>
<path d="M86.0838 65.1566H91.9536C92.0761 65.1568 92.197 65.1359 92.3073 65.0954C92.4176 65.055 92.5145 64.9961 92.5905 64.9231C92.6655 64.8521 92.7184 64.7692 92.7453 64.6805C92.7721 64.5918 92.7721 64.4996 92.7453 64.4109C92.2171 62.6451 92.2171 60.8117 92.7453 59.0459C92.7721 58.9572 92.7721 58.865 92.7453 58.7763C92.7184 58.6876 92.6655 58.6047 92.5905 58.5338C92.5145 58.4608 92.4176 58.4018 92.3073 58.3614C92.197 58.3209 92.0761 58.3 91.9536 58.3002H86.0838C85.889 58.2999 85.7006 58.3532 85.5535 58.4503C85.4064 58.5474 85.3105 58.6818 85.2836 58.8285C84.9086 60.7513 84.9086 62.7056 85.2836 64.6283C85.3105 64.775 85.4064 64.9094 85.5535 65.0065C85.7006 65.1036 85.889 65.1569 86.0838 65.1566Z" fill="#CCCCCC"/>
<path d="M17.6804 89.7965H40.9078C41.1956 89.7965 41.4716 89.7096 41.6751 89.5549C41.8786 89.4001 41.9929 89.1902 41.9929 88.9714C41.9929 88.7525 41.8786 88.5426 41.6751 88.3879C41.4716 88.2331 41.1956 88.1462 40.9078 88.1462H17.6804C17.3926 88.1462 17.1166 88.2331 16.9131 88.3879C16.7096 88.5426 16.5953 88.7525 16.5953 88.9714C16.5953 89.1902 16.7096 89.4001 16.9131 89.5549C17.1166 89.7096 17.3926 89.7965 17.6804 89.7965Z" fill="#CCCCCC"/>
<path d="M17.6804 92.3198H40.9078C41.1956 92.3198 41.4716 92.2329 41.6751 92.0781C41.8786 91.9234 41.9929 91.7135 41.9929 91.4946C41.9929 91.2758 41.8786 91.0659 41.6751 90.9111C41.4716 90.7564 41.1956 90.6694 40.9078 90.6694H17.6804C17.3926 90.6694 17.1166 90.7564 16.9131 90.9111C16.7096 91.0659 16.5953 91.2758 16.5953 91.4946C16.5953 91.7135 16.7096 91.9234 16.9131 92.0781C17.1166 92.2329 17.3926 92.3198 17.6804 92.3198Z" fill="#CCCCCC"/>
<path d="M17.6805 94.8431H40.9079C41.1955 94.8428 41.4711 94.7558 41.6743 94.601C41.8776 94.4463 41.9917 94.2366 41.9917 94.0179C41.9917 93.7992 41.8776 93.5895 41.6743 93.4347C41.4711 93.28 41.1955 93.1929 40.9079 93.1927H17.6805C17.5379 93.1925 17.3966 93.2138 17.2648 93.2552C17.133 93.2966 17.0132 93.3573 16.9123 93.434C16.8114 93.5106 16.7313 93.6016 16.6767 93.7018C16.6221 93.802 16.5939 93.9094 16.5939 94.0179C16.5939 94.1263 16.6221 94.2337 16.6767 94.3339C16.7313 94.4341 16.8114 94.5251 16.9123 94.6018C17.0132 94.6784 17.133 94.7392 17.2648 94.7806C17.3966 94.822 17.5379 94.8432 17.6805 94.8431Z" fill="#CCCCCC"/>
</svg>
