<svg width="96" height="102" viewBox="0 0 96 102" fill="none" xmlns="http://www.w3.org/2000/svg">
<path d="M61.6698 81.2872C63.6478 79.2973 66.5142 78.1561 69.534 78.1561L69.6505 78.1564C71.6396 78.1572 73.5931 77.6425 75.3114 76.6651L75.4902 76.5635L75.3462 76.4187C74.5666 75.6319 73.9155 74.7328 73.416 73.7529C73.7708 74.0756 74.194 74.3183 74.6555 74.4637C75.1171 74.6092 75.6059 74.6539 76.0871 74.5947C76.5952 74.5356 77.083 74.3651 77.5139 74.0958C77.9448 73.8266 78.3076 73.4657 78.5751 73.0402C79.6305 71.3697 80.8887 68.9993 80.8887 67.1936C80.887 65.6673 80.5594 64.1581 79.9267 62.7621C79.294 61.3662 78.3701 60.1141 77.2139 59.0858C76.4819 58.442 75.8972 57.6549 75.498 56.7758C75.0988 55.8968 74.8939 54.9455 74.8968 53.9841L74.8974 53.8472C74.8976 52.5814 74.739 51.3204 74.4252 50.0921L74.3934 49.9681L74.2626 49.9726C73.419 50.0006 72.5749 49.9316 71.7479 49.7671C72.5237 49.6742 73.2826 49.4773 74.0031 49.182L74.1439 49.1264L74.0961 48.9857C70.8038 46.9973 63.3722 48.027 59.0586 38.3999C55.5609 30.5936 43.2199 45.3295 43.2199 53.8473C43.2199 54.7164 44.1017 55.8649 43.4416 56.4394C36.306 62.6493 41.2294 66.6369 42.7817 70.6494C43.15 71.6014 42.3514 72.6465 42.3514 73.6765C42.3514 73.8512 42.356 74.0316 42.365 74.2126L42.3788 74.4909L42.6167 74.3365C43.0874 74.0357 43.5237 73.6867 43.9181 73.2952C43.5089 74.2138 43.316 75.2103 43.3537 76.2112C43.3914 77.2121 43.6587 78.192 44.1359 79.0788C44.8837 80.4556 45.6072 81.4413 46.2861 82.0082C48.4612 83.8239 51.2652 84.7605 54.1247 84.6265C56.9842 84.4925 59.6832 83.298 61.6698 81.2872Z" fill="#FFAE5F"/>
<path d="M49.7234 102C49.6748 102 49.6278 101.983 49.5911 101.952C49.5544 101.921 49.5304 101.878 49.5236 101.831C49.515 101.772 48.674 95.8547 49.4293 87.9907C50.1269 80.7281 52.3671 70.2674 59.0779 61.6762C59.094 61.6555 59.1141 61.6382 59.137 61.6252C59.16 61.6121 59.1853 61.6036 59.2116 61.6001C59.238 61.5966 59.2647 61.5982 59.2904 61.6049C59.3161 61.6115 59.3402 61.623 59.3613 61.6387C59.3824 61.6544 59.4002 61.674 59.4135 61.6964C59.4269 61.7188 59.4356 61.7435 59.4391 61.7692C59.4427 61.7949 59.441 61.821 59.4342 61.8461C59.4274 61.8711 59.4155 61.8946 59.3994 61.9152C52.7466 70.4322 50.5244 80.8162 49.8318 88.0275C49.0808 95.8458 49.9153 101.717 49.9238 101.775C49.9278 101.803 49.9257 101.832 49.9175 101.859C49.9093 101.886 49.8952 101.911 49.8762 101.932C49.8572 101.953 49.8337 101.971 49.8074 101.982C49.781 101.994 49.7524 102 49.7234 102Z" fill="#3F3D56"/>
<path d="M55.1998 73.7945C55.1571 73.7946 55.1155 73.7814 55.0809 73.757C55.0464 73.7325 55.0207 73.698 55.0074 73.6584C54.9942 73.6188 54.9942 73.5761 55.0074 73.5365C55.0206 73.4969 55.0463 73.4624 55.0808 73.4379C56.993 72.1753 59.0587 71.1495 61.2304 70.3842C64.6232 69.1725 69.7825 68.0741 75.0939 69.723C75.1192 69.7309 75.1427 69.7435 75.1631 69.7601C75.1834 69.7768 75.2002 69.7973 75.2124 69.8203C75.2247 69.8433 75.2321 69.8684 75.2344 69.8943C75.2366 69.9201 75.2337 69.9461 75.2256 69.9708C75.2175 69.9955 75.2046 70.0184 75.1874 70.0382C75.1703 70.058 75.1493 70.0744 75.1256 70.0862C75.102 70.0981 75.0762 70.1053 75.0497 70.1075C75.0233 70.1096 74.9966 70.1067 74.9713 70.0987C69.7687 68.4836 64.7029 69.5639 61.3693 70.7545C59.2326 71.5067 57.2 72.5153 55.3184 73.7569C55.284 73.7814 55.2424 73.7946 55.1998 73.7945Z" fill="#3F3D56"/>
<path d="M45.9496 51.3208C45.9465 51.2793 45.9569 51.2378 45.9794 51.2024C46.002 51.1671 46.0354 51.1396 46.0749 51.1238C46.1145 51.1081 46.1581 51.105 46.1995 51.115C46.241 51.125 46.2781 51.1475 46.3057 51.1793C47.7343 52.9489 48.9319 54.8848 49.8708 56.9426C51.3541 60.1564 52.8488 65.097 51.5452 70.3835C51.5391 70.4087 51.5279 70.4325 51.5123 70.4534C51.4967 70.4744 51.477 70.4922 51.4543 70.5057C51.4317 70.5192 51.4065 70.5283 51.3803 70.5324C51.3541 70.5364 51.3273 70.5354 51.3014 70.5293C51.2756 70.5233 51.2513 70.5123 51.2298 70.497C51.2083 70.4818 51.1901 70.4626 51.1763 70.4405C51.1624 70.4184 51.1532 70.3938 51.1491 70.3682C51.1449 70.3426 51.146 70.3165 51.1523 70.2913C52.429 65.1131 50.9596 60.2622 49.5022 57.1045C48.5792 55.0797 47.4017 53.1748 45.9966 51.4335C45.9691 51.4018 45.9526 51.3623 45.9496 51.3208Z" fill="#3F3D56"/>
<path d="M6.96621 101.791H23.0554L23.1245 101.669C23.3302 101.305 23.5288 100.919 23.7144 100.523C25.3717 97.0621 26.0722 93.1036 26.6903 89.6112L27.1557 86.9787C27.2121 86.6599 27.1696 86.3319 27.0338 86.0368C26.8979 85.7416 26.6749 85.4927 26.3932 85.322C26.1115 85.1512 25.784 85.0663 25.4526 85.0782C25.1211 85.09 24.8009 85.1981 24.5328 85.3886C22.0877 87.1242 19.6416 88.8581 17.1946 90.5903C16.268 91.2479 15.2099 92.0091 14.1965 92.8316C14.0987 92.3684 13.9964 91.9038 13.8942 91.4456C13.8237 91.1293 13.658 90.8407 13.4183 90.6167C13.1787 90.3928 12.876 90.2437 12.549 90.1885C12.222 90.1334 11.8855 90.1747 11.5827 90.3071C11.2799 90.4396 11.0245 90.6572 10.8492 90.9321L8.96677 93.8823C7.59377 96.0368 6.38198 98.1598 6.62888 100.45C6.62769 100.478 6.62983 100.505 6.63528 100.533C6.68467 100.909 6.77629 101.279 6.90846 101.635L6.96621 101.791Z" fill="#F0F0F0"/>
<path d="M14.4623 40.0894L17.5674 28.8783C17.7004 28.4037 18.0193 27.9991 18.4554 27.7519C18.8915 27.5047 19.4097 27.4346 19.8983 27.5568C20.151 27.6201 20.3879 27.7328 20.5945 27.8883C20.8011 28.0437 20.9731 28.2386 21.1 28.461C21.2269 28.6834 21.306 28.9287 21.3326 29.1819C21.3591 29.4351 21.3325 29.691 21.2544 29.9338L17.6629 41.4829L15.7839 48.5903C16.0576 48.7942 16.2603 49.0752 16.3645 49.3954C16.4687 49.7155 16.4693 50.0592 16.3664 50.3797C16.2634 50.7002 16.0617 50.982 15.7888 51.1868C15.5159 51.3916 15.185 51.5095 14.841 51.5245C14.497 51.5395 14.1567 51.4508 13.8662 51.2705C13.5756 51.0902 13.3491 50.827 13.2172 50.5167C13.0854 50.2065 13.0547 49.8641 13.1292 49.5362C13.2038 49.2083 13.38 48.9107 13.634 48.6839L14.4623 40.0894Z" fill="#FFB8B8"/>
<path d="M40.5906 37.6749L31.1562 30.5922C30.7574 30.291 30.496 29.8489 30.4284 29.3613C30.3608 28.8737 30.4924 28.3798 30.7949 27.9861C30.9514 27.7824 31.1487 27.6119 31.3749 27.4851C31.6011 27.3582 31.8515 27.2776 32.1106 27.2482C32.3698 27.2188 32.6324 27.2412 32.8824 27.314C33.1324 27.3868 33.3646 27.5086 33.5649 27.6718L43.1337 35.3221L49.149 39.7316C49.4467 39.5628 49.7904 39.4874 50.1335 39.5158C50.4766 39.5442 50.8025 39.6749 51.0667 39.8902C51.331 40.1055 51.5209 40.395 51.6107 40.7192C51.7005 41.0435 51.6857 41.3869 51.5685 41.7027C51.4513 42.0185 51.2372 42.2914 50.9554 42.4844C50.6736 42.6774 50.3377 42.7811 49.9934 42.7814C49.649 42.7817 49.313 42.6786 49.0308 42.4861C48.7486 42.2936 48.5341 42.021 48.4163 41.7054L40.5906 37.6749Z" fill="#FFB8B8"/>
<path d="M32.9013 39.3031L33.3171 48.3631L20.2596 45.5948C21.371 41.9543 22.1267 41.3333 21.2916 38.7997L32.9013 39.3031Z" fill="#FFB8B8"/>
<path d="M24.8725 22.6935H29.2234L31.0918 25.8124L31.9821 25.7644C32.4176 25.741 32.8533 25.8044 33.2628 25.9508C33.6723 26.0972 34.0468 26.3235 34.3636 26.616C34.6804 26.9084 34.9327 27.2607 35.1051 27.6515C35.2775 28.0422 35.3665 28.4632 35.3665 28.8886L34.2695 30.5471C34.2695 30.5471 36.2313 33.8823 33.4053 35.5231C33.4053 35.5231 33.9094 38.6145 33.4053 38.5813C32.9013 38.5481 31.7403 37.9189 32.9013 38.5481C34.0623 39.1773 33.9757 39.2617 33.8255 39.4083L33.6753 39.5548L21.4676 41.5543C21.4676 41.5543 21.1105 39.2458 21.072 38.834C21.0336 38.4222 21.2916 39.4289 21.0336 38.4222C20.7756 37.4156 20.3886 37.7931 20.7756 37.4156C21.1626 37.0381 18.2681 32.3612 19.4573 30.5471L17.5506 28.733C17.5506 26.9928 20.4158 25.5822 22.1996 25.5822H22.4282L24.8725 22.6935Z" fill="#3E5294"/>
<path d="M35.3552 98.2985H37.1163L37.9541 91.6725L35.3551 91.6727L35.3552 98.2985Z" fill="#A0616A"/>
<path d="M40.6704 100.833C40.6695 101.026 40.5909 101.21 40.4515 101.346C40.3122 101.482 40.1234 101.559 39.9261 101.561H36.6111L36.5084 101.353L36.0395 100.409L35.8579 101.353L35.8177 101.561H34.5673L34.5852 101.352L34.9186 97.4513L35.3548 97.4252L37.2393 97.3163L37.7022 97.2887V98.4533C38.0535 98.8177 40.8103 100.196 40.6704 100.833Z" fill="#2F2E41"/>
<path d="M9.18371 93.7991L10.6647 94.7285L15.0442 89.5982L12.8582 88.2267L9.18371 93.7991Z" fill="#A0616A"/>
<path d="M12.2477 98.7357C12.1402 98.8971 11.9718 99.0106 11.7791 99.0516C11.5864 99.0926 11.3848 99.0578 11.2182 98.9547L8.43032 97.2052L8.4591 96.9763L8.58823 95.9351L7.91203 96.633L7.76306 96.7864L6.71149 96.1265L6.84248 95.9601L9.28608 92.856L9.66738 93.0642L11.3126 93.9672L11.7173 94.1883L11.0714 95.1677C11.1647 95.6596 12.7189 98.2735 12.2477 98.7357Z" fill="#2F2E41"/>
<path d="M0.968967 101.912L55.4978 101.964C55.5522 101.964 55.6043 101.943 55.6427 101.905C55.6811 101.867 55.7026 101.817 55.7026 101.763C55.7026 101.71 55.6811 101.659 55.6427 101.622C55.6043 101.584 55.5522 101.563 55.4978 101.563L0.968967 101.511C0.914547 101.511 0.862446 101.532 0.824059 101.57C0.785671 101.608 0.764111 101.659 0.764111 101.712C0.764111 101.765 0.785671 101.816 0.824059 101.853C0.862446 101.891 0.914547 101.912 0.968967 101.912Z" fill="#CACACA"/>
<path d="M20.464 44.5713C20.464 44.5713 28.8106 48.8781 33.2253 45.9398C33.2253 45.9398 34.191 50.5023 34.578 50.8798C34.965 51.2573 35.5816 51.4218 35.1443 51.8429C34.707 52.264 34.4636 52.8327 35.2948 53.555C36.126 54.2773 36.9548 54.0482 36.1534 54.7919C35.352 55.5357 38.5769 73.7816 38.5769 73.7816C38.5769 73.7816 38.0609 90.7496 38.5769 91.2628C39.0929 91.776 39.7826 91.8908 39.1153 92.5255C38.4479 93.1601 38.4479 92.6679 38.4479 93.5432V94.4185L38.1426 95.2884H33.9542C33.9542 95.2884 32.9434 94.143 33.9542 93.1482C34.965 92.1534 33.6466 91.8812 33.3383 90.9477C33.03 90.0143 32.5141 91.0209 33.03 90.0143C33.546 89.0076 33.7939 89.1991 33.7989 88.5371C33.804 87.8751 26.1932 61.9532 26.1932 61.9532L25.2714 76.3006L14.1835 92.0134L10.9198 89.6257C10.9198 89.6257 13.296 86.3627 12.7403 85.9141C12.1847 85.4655 14.378 84.9029 13.6864 84.3969C12.9947 83.8909 14.6597 83.3809 14.0322 82.7102C13.4047 82.0394 14.8967 80.3488 15.7613 80.3488C16.6258 80.3488 17.8392 77.5305 17.8392 77.5305L16.0279 55.2672L20.464 44.5713Z" fill="#090D14"/>
<path d="M29.3107 13.5356C29.3697 13.6113 29.8404 13.5705 30.4063 13.4899C31.5252 13.3305 31.6777 13.5199 32.5141 14.2621C33.7258 15.3373 33.0369 21.895 33.6323 23.3159L33.8247 23.4542C33.4432 23.3831 33.0684 23.2808 32.7045 23.1484C32.4989 22.5156 32.2927 21.8808 32.0852 21.2485C31.8893 21.7405 31.7661 22.2571 31.7194 22.7829C31.4314 22.6721 31.145 22.4012 29.9415 22.0379C29.3355 21.6369 24.951 21.2336 24.3873 21.0572C22.9568 16.3093 25.2621 14.3893 29.3107 13.5356Z" fill="#2F2E41"/>
<path d="M27.8304 20.8569C25.5164 20.8569 23.6406 19.027 23.6406 16.7698C23.6406 14.5125 25.5164 12.6826 27.8304 12.6826C30.1444 12.6826 32.0203 14.5125 32.0203 16.7698C32.0203 19.027 30.1444 20.8569 27.8304 20.8569Z" fill="#FFB8B8"/>
<path d="M25.1923 13.1754C25.4285 13.1414 25.6557 13.0637 25.8619 12.9464C25.9641 12.8862 26.0469 12.7991 26.1008 12.6952C26.1548 12.5913 26.1776 12.4746 26.1668 12.3586C26.1152 12.0682 25.7786 11.8949 25.477 11.9125C25.1768 11.9547 24.8915 12.0674 24.6456 12.2407C24.6726 11.9601 24.7955 11.6965 24.9946 11.4921C25.1937 11.2878 25.4574 11.1547 25.7433 11.1142C25.3467 11.0934 24.9343 11.075 24.5675 11.2238C24.2007 11.3726 23.8951 11.7411 23.9612 12.1232C23.3445 12.0457 22.7364 12.4648 22.4818 13.0182C22.2272 13.5715 22.2777 14.2213 22.4811 14.7945C22.5012 14.8823 22.5403 14.9648 22.5959 15.0365C22.6516 15.1082 22.7223 15.1674 22.8035 15.2101C23.011 15.287 23.2343 15.1581 23.4142 15.0311C24.3535 14.3677 25.2085 13.5974 25.961 12.7367" fill="#2F2E41"/>
<path d="M23.3658 21.115C23.5434 21.1965 23.4509 21.5 23.5889 21.6359C23.6488 21.6935 23.7211 21.7373 23.8005 21.7643C23.8212 21.511 23.8817 21.2623 23.9798 21.0269C23.9978 20.9841 24.0275 20.9363 24.0739 20.9401C24.1281 20.9463 24.1423 21.0155 24.1436 21.0671C24.1545 21.3231 24.2127 21.575 24.3152 21.8108C24.3165 21.8133 24.3178 21.8171 24.319 21.8196C24.359 21.8184 24.4003 21.8171 24.439 21.8159C24.7383 21.8045 25.4013 21.0546 25.5484 21.3087C25.0298 20.4116 24.3977 19.0626 24.301 18.0371C24.2675 17.8223 24.2838 17.603 24.3487 17.3953C24.3826 17.2919 24.4462 17.2003 24.532 17.1311C24.6177 17.062 24.722 17.0183 24.8325 17.0052C24.8869 17.0028 24.9413 17.0121 24.9916 17.0326C25.042 17.0531 25.0871 17.0841 25.1237 17.1236C25.1603 17.163 25.1875 17.2098 25.2034 17.2607C25.2193 17.3116 25.2234 17.3653 25.2156 17.418L25.2904 17.4079C25.9844 16.8567 25.3858 15.8991 26.1934 15.5204C26.4668 15.392 28.1412 15.8211 28.4366 15.7456C28.4429 15.4421 28.5063 15.1422 28.6237 14.861C28.6417 14.8182 28.6714 14.7704 28.7178 14.7742C28.772 14.7805 28.7862 14.8497 28.7875 14.9013C28.7984 15.1572 28.8565 15.4091 28.9591 15.645C29.3683 15.5883 29.7849 15.6097 30.1858 15.7079C30.5393 15.7985 30.8747 15.9545 31.2294 16.0376C31.4048 16.09 31.5892 16.107 31.7716 16.0875C31.9539 16.068 32.1302 16.0125 32.2898 15.9243C32.74 15.6298 32.8187 14.978 32.5942 14.4973C32.4318 14.1889 32.2122 13.9124 31.9466 13.6819C31.7441 13.4907 31.5338 13.3069 31.3236 13.1232C31.1352 12.9584 30.9469 12.7935 30.7586 12.6287C30.5215 12.411 30.2689 12.21 30.0027 12.0272C29.5776 11.7554 29.1001 11.5713 28.5994 11.486C28.0988 11.4007 27.5855 11.4162 27.0912 11.5314C26.4978 11.6698 25.7045 11.4748 25.1614 11.7453C24.8776 11.8875 24.2494 12.4324 24.0004 12.6262C23.3632 13.1207 23.7944 12.7178 23.0974 13.0037C21.4355 13.6855 22.1704 20.566 23.3658 21.115Z" fill="#2F2E41"/>
<path d="M69.6231 50.9662C55.2727 50.9662 43.6394 39.6181 43.6394 25.6195C43.6394 11.6209 55.2727 0.272766 69.6231 0.272766C83.9736 0.272766 95.6069 11.6209 95.6069 25.6195C95.6069 39.6181 83.9736 50.9662 69.6231 50.9662Z" fill="white"/>
<path d="M69.7569 51.1994C84.2274 51.1994 96 39.7154 96 25.5997C96 11.484 84.2273 3.05176e-05 69.7569 3.05176e-05C55.2864 3.05176e-05 43.5137 11.484 43.5137 25.5997C43.5137 39.7154 55.2864 51.1994 69.7569 51.1994ZM69.7569 0.506045C83.9413 0.506045 95.4813 11.7631 95.4813 25.5997C95.4813 39.4364 83.9413 50.6934 69.7569 50.6934C55.5724 50.6934 44.0324 39.4364 44.0324 25.5997C44.0324 11.7631 55.5724 0.506045 69.7569 0.506045Z" fill="#5885E9"/>
<path d="M66.3103 38.8068C65.8716 38.8068 65.4389 38.7048 65.0465 38.509C64.6541 38.3132 64.3129 38.0288 64.0497 37.6785L57.1188 28.4568C56.8962 28.1605 56.7342 27.8234 56.6421 27.4647C56.55 27.1059 56.5296 26.7326 56.5821 26.366C56.6346 25.9994 56.759 25.6467 56.948 25.3281C57.1371 25.0095 57.3873 24.7311 57.6841 24.5089C57.981 24.2867 58.3189 24.1251 58.6784 24.0332C59.0379 23.9413 59.412 23.921 59.7793 23.9733C60.1467 24.0257 60.5001 24.1498 60.8195 24.3385C61.1388 24.5272 61.4177 24.7768 61.6404 25.073L66.1748 31.1057L77.8209 13.6738C78.2369 13.052 78.8832 12.6204 79.6179 12.474C80.3526 12.3276 81.1155 12.4784 81.7389 12.8931C82.3623 13.3078 82.7951 13.9525 82.9423 14.6856C83.0894 15.4186 82.9389 16.18 82.5237 16.8023L68.6619 37.5509C68.4111 37.9262 68.0739 38.236 67.6784 38.4543C67.2829 38.6727 66.8407 38.7932 66.3889 38.8059C66.3627 38.8063 66.3365 38.8068 66.3103 38.8068Z" fill="#5885E9"/>
</svg>
