<svg width="18" height="21" viewBox="0 0 18 21" fill="none" xmlns="http://www.w3.org/2000/svg">
<path d="M5 3.19031H3C1.89543 3.19031 1 4.08574 1 5.19031V17.1903C1 18.2949 1.89543 19.1903 3 19.1903H13C14.1046 19.1903 15 18.2949 15 17.1903V16.1903M5 3.19031C5 4.29488 5.89543 5.19031 7 5.19031H9C10.1046 5.19031 11 4.29488 11 3.19031M5 3.19031C5 2.08574 5.89543 1.19031 7 1.19031H9C10.1046 1.19031 11 2.08574 11 3.19031M11 3.19031H13C14.1046 3.19031 15 4.08574 15 5.19031V8.19031M17 12.1903H7M7 12.1903L10 9.19031M7 12.1903L10 15.1903" stroke="#494949" stroke-width="2" stroke-linecap="round" stroke-linejoin="round"/>
</svg>
