<svg width="56" height="56" viewBox="0 0 56 56" fill="none" xmlns="http://www.w3.org/2000/svg">
<path d="M28 37.2062C27.5018 37.2081 27.0232 37.0126 26.6688 36.6625L18.8781 28.8718C18.3027 28.2948 17.8506 27.6067 17.5494 26.8494C17.2482 26.0921 17.1042 25.2815 17.1261 24.4668C17.1481 23.6522 17.3355 22.8505 17.6769 22.1105C18.0184 21.3705 18.5068 20.7077 19.1125 20.1625C19.6962 19.6414 20.3789 19.2434 21.1198 18.9921C21.8608 18.7408 22.6448 18.6414 23.425 18.7C24.9848 18.8033 26.454 19.4696 27.5594 20.575L28 21.0156L28.6281 20.3781C29.2052 19.8026 29.8933 19.3505 30.6506 19.0494C31.4078 18.7482 32.2185 18.6042 33.0331 18.6261C33.8478 18.648 34.6495 18.8354 35.3895 19.1769C36.1294 19.5184 36.7922 20.0068 37.3375 20.6125C37.8586 21.1961 38.2566 21.8788 38.5079 22.6198C38.7592 23.3607 38.8585 24.1447 38.8 24.925C38.6967 26.4848 38.0304 27.9539 36.925 29.0593L29.3219 36.6625C29.1484 36.8359 28.9423 36.9733 28.7154 37.0667C28.4885 37.16 28.2453 37.2074 28 37.2062ZM23.0313 20.9406C22.1455 20.9284 21.2868 21.2458 20.6219 21.8312C20.2418 22.1713 19.9351 22.5854 19.7206 23.0481C19.506 23.5109 19.3881 24.0125 19.3741 24.5223C19.3601 25.0322 19.4502 25.5395 19.6389 26.0134C19.8277 26.4872 20.1111 26.9175 20.4719 27.2781L28 34.8062L35.3313 27.475C36.8219 25.975 36.9719 23.575 35.6688 22.1218C35.3286 21.7418 34.9145 21.4351 34.4518 21.2205C33.9891 21.006 33.4875 20.8881 32.9776 20.874C32.4678 20.86 31.9604 20.9501 31.4866 21.1389C31.0128 21.3276 30.5824 21.6111 30.2219 21.9718L28.7969 23.3968C28.6924 23.5017 28.5682 23.5849 28.4314 23.6417C28.2947 23.6985 28.1481 23.7277 28 23.7277C27.8519 23.7277 27.7053 23.6985 27.5686 23.6417C27.4318 23.5849 27.3077 23.5017 27.2031 23.3968L25.9656 22.1687C25.5815 21.7808 25.1246 21.4726 24.621 21.2618C24.1174 21.0511 23.5772 20.9419 23.0313 20.9406Z" fill="#5885E9"/>
<rect x="1.5" y="1.5" width="53" height="53" rx="26.5" stroke="#5885E9" stroke-width="3"/>
</svg>
