<svg width="34" height="32" viewBox="0 0 34 32" fill="none" xmlns="http://www.w3.org/2000/svg">
<path fill-rule="evenodd" clip-rule="evenodd" d="M20 6.66667V3.33333H13.3333V6.66667H20ZM3.33333 10V28.3333H30V10H3.33333ZM30 6.66667C31.85 6.66667 33.3333 8.15 33.3333 10V28.3333C33.3333 30.1833 31.85 31.6667 30 31.6667H3.33333C1.48333 31.6667 0 30.1833 0 28.3333L0.0166667 10C0.0166667 8.15 1.48333 6.66667 3.33333 6.66667H10V3.33333C10 1.48333 11.4833 0 13.3333 0H20C21.85 0 23.3333 1.48333 23.3333 3.33333V6.66667H30Z" fill="#111111"/>
</svg>
