<svg width="64" height="64" viewBox="0 0 64 64" fill="none" xmlns="http://www.w3.org/2000/svg">
<mask id="mask0_284_381" style="mask-type:alpha" maskUnits="userSpaceOnUse" x="16" y="16" width="32" height="32">
<rect x="16" y="16" width="32" height="32" fill="#D9D9D9"/>
</mask>
<g mask="url(#mask0_284_381)">
<path d="M31.8336 42.6667C31.9225 42.6667 32.0114 42.6445 32.1003 42.6001C32.1892 42.5556 32.2559 42.5112 32.3003 42.4667L43.2336 31.5334C43.5003 31.2667 43.695 30.9667 43.8176 30.6334C43.9394 30.3001 44.0003 29.9667 44.0003 29.6334C44.0003 29.2779 43.9394 28.9387 43.8176 28.6161C43.695 28.2943 43.5003 28.0112 43.2336 27.7667L37.567 22.1001C37.3225 21.8334 37.0394 21.6387 36.7176 21.5161C36.395 21.3943 36.0559 21.3334 35.7003 21.3334C35.367 21.3334 35.0336 21.3943 34.7003 21.5161C34.367 21.6387 34.067 21.8334 33.8003 22.1001L33.4336 22.4667L35.9003 24.9667C36.2336 25.2779 36.4781 25.6334 36.6336 26.0334C36.7892 26.4334 36.867 26.8556 36.867 27.3001C36.867 28.2334 36.5505 29.0165 35.9176 29.6494C35.2839 30.2832 34.5003 30.6001 33.567 30.6001C33.1225 30.6001 32.695 30.5223 32.2843 30.3667C31.8728 30.2112 31.5114 29.9779 31.2003 29.6667L28.7003 27.2001L22.867 33.0334C22.8003 33.1001 22.7501 33.1725 22.7163 33.2507C22.6834 33.3281 22.667 33.4112 22.667 33.5001C22.667 33.6779 22.7336 33.8387 22.867 33.9827C23.0003 34.1276 23.1559 34.2001 23.3336 34.2001C23.4225 34.2001 23.5114 34.1779 23.6003 34.1334C23.6892 34.089 23.7559 34.0445 23.8003 34.0001L28.3336 29.4667L30.2003 31.3334L25.7003 35.8667C25.6336 35.9334 25.5834 36.0054 25.5496 36.0827C25.5168 36.161 25.5003 36.2445 25.5003 36.3334C25.5003 36.5112 25.567 36.6667 25.7003 36.8001C25.8336 36.9334 25.9892 37.0001 26.167 37.0001C26.2559 37.0001 26.3448 36.9779 26.4336 36.9334C26.5225 36.889 26.5892 36.8445 26.6336 36.8001L31.167 32.3001L33.0336 34.1667L28.5336 38.7001C28.467 38.7445 28.4172 38.8112 28.3843 38.9001C28.3505 38.989 28.3336 39.0779 28.3336 39.1667C28.3336 39.3445 28.4003 39.5001 28.5336 39.6334C28.667 39.7667 28.8225 39.8334 29.0003 39.8334C29.0892 39.8334 29.1728 39.8165 29.251 39.7827C29.3283 39.7499 29.4003 39.7001 29.467 39.6334L34.0003 35.1334L35.867 37.0001L31.3336 41.5334C31.267 41.6001 31.2172 41.6721 31.1843 41.7494C31.1505 41.8276 31.1336 41.9112 31.1336 42.0001C31.1336 42.1779 31.2061 42.3334 31.351 42.4667C31.495 42.6001 31.6559 42.6667 31.8336 42.6667ZM31.8003 45.3334C30.9781 45.3334 30.2505 45.061 29.6176 44.5161C28.9839 43.9721 28.6114 43.289 28.5003 42.4667C27.7448 42.3556 27.1114 42.0445 26.6003 41.5334C26.0892 41.0223 25.7781 40.389 25.667 39.6334C24.9114 39.5223 24.2839 39.2059 23.7843 38.6841C23.2839 38.1614 22.9781 37.5334 22.867 36.8001C22.0225 36.689 21.3336 36.3223 20.8003 35.7001C20.267 35.0779 20.0003 34.3445 20.0003 33.5001C20.0003 33.0556 20.0839 32.6276 20.251 32.2161C20.4172 31.8054 20.6559 31.4445 20.967 31.1334L28.7003 23.4334L33.067 27.8001C33.1114 27.8667 33.1781 27.9165 33.267 27.9494C33.3559 27.9832 33.4448 28.0001 33.5336 28.0001C33.7336 28.0001 33.9003 27.9392 34.0336 27.8174C34.167 27.6947 34.2336 27.5334 34.2336 27.3334C34.2336 27.2445 34.2172 27.1556 34.1843 27.0667C34.1505 26.9779 34.1003 26.9112 34.0336 26.8667L29.267 22.1001C29.0225 21.8334 28.739 21.6387 28.4163 21.5161C28.0945 21.3943 27.7559 21.3334 27.4003 21.3334C27.067 21.3334 26.7336 21.3943 26.4003 21.5161C26.067 21.6387 25.767 21.8334 25.5003 22.1001L20.8003 26.8334C20.6003 27.0334 20.4336 27.2667 20.3003 27.5334C20.167 27.8001 20.0781 28.0667 20.0336 28.3334C19.9892 28.6001 19.9892 28.8721 20.0336 29.1494C20.0781 29.4276 20.167 29.689 20.3003 29.9334L18.367 31.8667C17.9892 31.3556 17.7114 30.7943 17.5336 30.1827C17.3559 29.5721 17.2892 28.9556 17.3336 28.3334C17.3781 27.7112 17.5336 27.1054 17.8003 26.5161C18.067 25.9276 18.4336 25.4001 18.9003 24.9334L23.6003 20.2334C24.1336 19.7223 24.7283 19.3334 25.3843 19.0667C26.0394 18.8001 26.7114 18.6667 27.4003 18.6667C28.0892 18.6667 28.7612 18.8001 29.4163 19.0667C30.0723 19.3334 30.6559 19.7223 31.167 20.2334L31.5336 20.6001L31.9003 20.2334C32.4336 19.7223 33.0279 19.3334 33.683 19.0667C34.339 18.8001 35.0114 18.6667 35.7003 18.6667C36.3892 18.6667 37.0616 18.8001 37.7176 19.0667C38.3728 19.3334 38.9559 19.7223 39.467 20.2334L45.1003 25.8667C45.6114 26.3779 46.0003 26.9667 46.267 27.6334C46.5336 28.3001 46.667 28.9779 46.667 29.6667C46.667 30.3556 46.5336 31.0276 46.267 31.6827C46.0003 32.3387 45.6114 32.9223 45.1003 33.4334L34.167 44.3334C33.8559 44.6445 33.4945 44.889 33.083 45.0667C32.6723 45.2445 32.2448 45.3334 31.8003 45.3334Z" fill="#9284F1"/>
</g>
<rect x="1.5" y="1.5" width="61" height="61" rx="30.5" stroke="#9284F1" stroke-width="3"/>
</svg>
