<svg width="32" height="32" viewBox="0 0 32 32" fill="none" xmlns="http://www.w3.org/2000/svg">
<mask id="mask0_284_382" style="mask-type:alpha" maskUnits="userSpaceOnUse" x="0" y="0" width="32" height="32">
<rect width="32" height="32" fill="#D9D9D9"/>
</mask>
<g mask="url(#mask0_284_382)">
<path d="M15.8336 26.6667C15.9225 26.6667 16.0114 26.6445 16.1003 26.6001C16.1892 26.5556 16.2559 26.5112 16.3003 26.4667L27.2336 15.5334C27.5003 15.2667 27.695 14.9667 27.8176 14.6334C27.9394 14.3001 28.0003 13.9667 28.0003 13.6334C28.0003 13.2779 27.9394 12.9387 27.8176 12.6161C27.695 12.2943 27.5003 12.0112 27.2336 11.7667L21.567 6.10008C21.3225 5.83341 21.0394 5.63875 20.7176 5.51608C20.395 5.3943 20.0559 5.33341 19.7003 5.33341C19.367 5.33341 19.0336 5.3943 18.7003 5.51608C18.367 5.63875 18.067 5.83341 17.8003 6.10008L17.4336 6.46675L19.9003 8.96675C20.2336 9.27786 20.4781 9.63341 20.6336 10.0334C20.7892 10.4334 20.867 10.8556 20.867 11.3001C20.867 12.2334 20.5505 13.0165 19.9176 13.6494C19.2839 14.2832 18.5003 14.6001 17.567 14.6001C17.1225 14.6001 16.695 14.5223 16.2843 14.3667C15.8728 14.2112 15.5114 13.9779 15.2003 13.6667L12.7003 11.2001L6.86698 17.0334C6.80031 17.1001 6.75009 17.1725 6.71631 17.2507C6.68342 17.3281 6.66698 17.4112 6.66698 17.5001C6.66698 17.6779 6.73365 17.8387 6.86698 17.9827C7.00031 18.1276 7.15587 18.2001 7.33365 18.2001C7.42253 18.2001 7.51142 18.1779 7.60031 18.1334C7.6892 18.089 7.75587 18.0445 7.80031 18.0001L12.3336 13.4667L14.2003 15.3334L9.70031 19.8667C9.63365 19.9334 9.58342 20.0054 9.54965 20.0827C9.51676 20.161 9.50031 20.2445 9.50031 20.3334C9.50031 20.5112 9.56698 20.6667 9.70031 20.8001C9.83365 20.9334 9.9892 21.0001 10.167 21.0001C10.2559 21.0001 10.3448 20.9779 10.4336 20.9334C10.5225 20.889 10.5892 20.8445 10.6336 20.8001L15.167 16.3001L17.0336 18.1667L12.5336 22.7001C12.467 22.7445 12.4172 22.8112 12.3843 22.9001C12.3505 22.989 12.3336 23.0779 12.3336 23.1667C12.3336 23.3445 12.4003 23.5001 12.5336 23.6334C12.667 23.7667 12.8225 23.8334 13.0003 23.8334C13.0892 23.8334 13.1728 23.8165 13.251 23.7827C13.3283 23.7499 13.4003 23.7001 13.467 23.6334L18.0003 19.1334L19.867 21.0001L15.3336 25.5334C15.267 25.6001 15.2172 25.6721 15.1843 25.7494C15.1505 25.8276 15.1336 25.9112 15.1336 26.0001C15.1336 26.1779 15.2061 26.3334 15.351 26.4667C15.495 26.6001 15.6559 26.6667 15.8336 26.6667ZM15.8003 29.3334C14.9781 29.3334 14.2505 29.061 13.6176 28.5161C12.9839 27.9721 12.6114 27.289 12.5003 26.4667C11.7448 26.3556 11.1114 26.0445 10.6003 25.5334C10.0892 25.0223 9.77809 24.389 9.66698 23.6334C8.91142 23.5223 8.28387 23.2059 7.78431 22.6841C7.28387 22.1614 6.97809 21.5334 6.86698 20.8001C6.02253 20.689 5.33365 20.3223 4.80031 19.7001C4.26698 19.0779 4.00031 18.3445 4.00031 17.5001C4.00031 17.0556 4.08387 16.6276 4.25098 16.2161C4.4172 15.8054 4.65587 15.4445 4.96698 15.1334L12.7003 7.43341L17.067 11.8001C17.1114 11.8667 17.1781 11.9165 17.267 11.9494C17.3559 11.9832 17.4448 12.0001 17.5336 12.0001C17.7336 12.0001 17.9003 11.9392 18.0336 11.8174C18.167 11.6947 18.2336 11.5334 18.2336 11.3334C18.2336 11.2445 18.2172 11.1556 18.1843 11.0667C18.1505 10.9779 18.1003 10.9112 18.0336 10.8667L13.267 6.10008C13.0225 5.83341 12.739 5.63875 12.4163 5.51608C12.0945 5.3943 11.7559 5.33341 11.4003 5.33341C11.067 5.33341 10.7336 5.3943 10.4003 5.51608C10.067 5.63875 9.76698 5.83341 9.50031 6.10008L4.80031 10.8334C4.60031 11.0334 4.43365 11.2667 4.30031 11.5334C4.16698 11.8001 4.07809 12.0667 4.03365 12.3334C3.9892 12.6001 3.9892 12.8721 4.03365 13.1494C4.07809 13.4276 4.16698 13.689 4.30031 13.9334L2.36698 15.8667C1.9892 15.3556 1.71142 14.7943 1.53365 14.1827C1.35587 13.5721 1.2892 12.9556 1.33365 12.3334C1.37809 11.7112 1.53365 11.1054 1.80031 10.5161C2.06698 9.92764 2.43365 9.40008 2.90031 8.93341L7.60031 4.23341C8.13365 3.7223 8.72831 3.33341 9.38431 3.06675C10.0394 2.80008 10.7114 2.66675 11.4003 2.66675C12.0892 2.66675 12.7612 2.80008 13.4163 3.06675C14.0723 3.33341 14.6559 3.7223 15.167 4.23341L15.5336 4.60008L15.9003 4.23341C16.4336 3.7223 17.0279 3.33341 17.683 3.06675C18.339 2.80008 19.0114 2.66675 19.7003 2.66675C20.3892 2.66675 21.0616 2.80008 21.7176 3.06675C22.3728 3.33341 22.9559 3.7223 23.467 4.23341L29.1003 9.86675C29.6114 10.3779 30.0003 10.9667 30.267 11.6334C30.5336 12.3001 30.667 12.9779 30.667 13.6667C30.667 14.3556 30.5336 15.0276 30.267 15.6827C30.0003 16.3387 29.6114 16.9223 29.1003 17.4334L18.167 28.3334C17.8559 28.6445 17.4945 28.889 17.083 29.0667C16.6723 29.2445 16.2448 29.3334 15.8003 29.3334Z" fill="#9284F1"/>
</g>
</svg>
