<svg width="35" height="34" viewBox="0 0 35 34" fill="none" xmlns="http://www.w3.org/2000/svg">
<path d="M17.5 3.16669C16.837 3.16669 16.2011 3.43008 15.7322 3.89892C15.2634 4.36776 15 5.00365 15 5.66669C15 6.32973 15.2634 6.96561 15.7322 7.43445C16.2011 7.90329 16.837 8.16669 17.5 8.16669C18.163 8.16669 18.7989 7.90329 19.2678 7.43445C19.7366 6.96561 20 6.32973 20 5.66669C20 5.00365 19.7366 4.36776 19.2678 3.89892C18.7989 3.43008 18.163 3.16669 17.5 3.16669ZM12.5 5.66669C12.5 4.3406 13.0268 3.06883 13.9645 2.13115C14.9021 1.19347 16.1739 0.666687 17.5 0.666687C18.8261 0.666687 20.0979 1.19347 21.0355 2.13115C21.9732 3.06883 22.5 4.3406 22.5 5.66669C22.5 6.99277 21.9732 8.26454 21.0355 9.20222C20.0979 10.1399 18.8261 10.6667 17.5 10.6667C16.1739 10.6667 14.9021 10.1399 13.9645 9.20222C13.0268 8.26454 12.5 6.99277 12.5 5.66669ZM29.375 4.41669C28.8777 4.41669 28.4008 4.61423 28.0492 4.96586C27.6975 5.31749 27.5 5.79441 27.5 6.29169C27.5 6.78897 27.6975 7.26588 28.0492 7.61751C28.4008 7.96914 28.8777 8.16669 29.375 8.16669C29.8723 8.16669 30.3492 7.96914 30.7008 7.61751C31.0525 7.26588 31.25 6.78897 31.25 6.29169C31.25 5.79441 31.0525 5.31749 30.7008 4.96586C30.3492 4.61423 29.8723 4.41669 29.375 4.41669ZM25 6.29169C25 5.71715 25.1132 5.14825 25.333 4.61745C25.5529 4.08665 25.8752 3.60435 26.2814 3.19809C26.6877 2.79184 27.17 2.46958 27.7008 2.24971C28.2316 2.02985 28.8005 1.91669 29.375 1.91669C29.9495 1.91669 30.5184 2.02985 31.0492 2.24971C31.58 2.46958 32.0623 2.79184 32.4686 3.19809C32.8749 3.60435 33.1971 4.08665 33.417 4.61745C33.6368 5.14825 33.75 5.71715 33.75 6.29169C33.75 7.45201 33.2891 8.56481 32.4686 9.38528C31.6481 10.2058 30.5353 10.6667 29.375 10.6667C28.2147 10.6667 27.1019 10.2058 26.2814 9.38528C25.4609 8.56481 25 7.45201 25 6.29169ZM3.75 6.29169C3.75 5.79441 3.94754 5.31749 4.29917 4.96586C4.65081 4.61423 5.12772 4.41669 5.625 4.41669C6.12228 4.41669 6.59919 4.61423 6.95083 4.96586C7.30246 5.31749 7.5 5.79441 7.5 6.29169C7.5 6.78897 7.30246 7.26588 6.95083 7.61751C6.59919 7.96914 6.12228 8.16669 5.625 8.16669C5.12772 8.16669 4.65081 7.96914 4.29917 7.61751C3.94754 7.26588 3.75 6.78897 3.75 6.29169ZM5.625 1.91669C4.46468 1.91669 3.35188 2.37762 2.53141 3.1981C1.71094 4.01857 1.25 5.13136 1.25 6.29169C1.25 7.45201 1.71094 8.56481 2.53141 9.38528C3.35188 10.2058 4.46468 10.6667 5.625 10.6667C6.78532 10.6667 7.89812 10.2058 8.71859 9.38528C9.53906 8.56481 10 7.45201 10 6.29169C10 5.13136 9.53906 4.01857 8.71859 3.1981C7.89812 2.37762 6.78532 1.91669 5.625 1.91669ZM8.31375 27.5479C7.74841 27.9206 7.09273 28.1332 6.41629 28.1632C5.73986 28.1932 5.06792 28.0396 4.47179 27.7185C3.87565 27.3974 3.37757 26.9209 3.03041 26.3396C2.68325 25.7583 2.49996 25.0938 2.5 24.4167V16.2917C2.5 16.1259 2.56585 15.967 2.68306 15.8497C2.80027 15.7325 2.95924 15.6667 3.125 15.6667H8.16375C8.27776 14.7515 8.64388 13.8859 9.22125 13.1667H3.125C2.2962 13.1667 1.50134 13.4959 0.915292 14.082C0.32924 14.668 2.80491e-07 15.4629 2.80491e-07 16.2917V24.4167C-0.00032214 25.493 0.277325 26.5512 0.806047 27.4887C1.33477 28.4262 2.09665 29.2113 3.01788 29.7679C3.93912 30.3246 4.98849 30.6338 6.06435 30.6658C7.1402 30.6978 8.20609 30.4514 9.15875 29.9504C8.76833 29.1921 8.484 28.3837 8.31375 27.5479ZM25.8413 29.9504C26.7939 30.4514 27.8598 30.6978 28.9357 30.6658C30.0115 30.6338 31.0609 30.3246 31.9821 29.7679C32.9034 29.2113 33.6652 28.4262 34.194 27.4887C34.7227 26.5512 35.0003 25.493 35 24.4167V16.2917C35 15.4629 34.6708 14.668 34.0847 14.082C33.4987 13.4959 32.7038 13.1667 31.875 13.1667H25.7787C26.3556 13.8862 26.7217 14.7516 26.8363 15.6667H31.875C32.0408 15.6667 32.1997 15.7325 32.3169 15.8497C32.4342 15.967 32.5 16.1259 32.5 16.2917V24.4167C32.5 25.0938 32.3167 25.7583 31.9696 26.3396C31.6224 26.9209 31.1243 27.3974 30.5282 27.7185C29.9321 28.0396 29.2601 28.1932 28.5837 28.1632C27.9073 28.1332 27.2516 27.9206 26.6863 27.5479C26.516 28.3837 26.2317 29.1921 25.8413 29.9504ZM13.125 13.1667C12.2962 13.1667 11.5013 13.4959 10.9153 14.082C10.3292 14.668 10 15.4629 10 16.2917V25.6667C10 27.6558 10.7902 29.5635 12.1967 30.97C13.6032 32.3765 15.5109 33.1667 17.5 33.1667C19.4891 33.1667 21.3968 32.3765 22.8033 30.97C24.2098 29.5635 25 27.6558 25 25.6667V16.2917C25 15.4629 24.6708 14.668 24.0847 14.082C23.4987 13.4959 22.7038 13.1667 21.875 13.1667H13.125ZM12.5 16.2917C12.5 16.1259 12.5658 15.967 12.6831 15.8497C12.8003 15.7325 12.9592 15.6667 13.125 15.6667H21.875C22.0408 15.6667 22.1997 15.7325 22.3169 15.8497C22.4342 15.967 22.5 16.1259 22.5 16.2917V25.6667C22.5 26.9928 21.9732 28.2645 21.0355 29.2022C20.0979 30.1399 18.8261 30.6667 17.5 30.6667C16.1739 30.6667 14.9021 30.1399 13.9645 29.2022C13.0268 28.2645 12.5 26.9928 12.5 25.6667V16.2917Z" fill="#111111"/>
</svg>
