<svg width="65" height="64" viewBox="0 0 65 64" fill="none" xmlns="http://www.w3.org/2000/svg">
<path d="M33.8337 20C39.0337 20 43.167 24.1334 43.167 29.3334C43.167 33.0667 41.0337 36.2667 37.8337 37.7334V44H28.5003V40H27.167C25.7003 40 24.5003 38.8 24.5003 37.3334V33.3334H22.5003C21.967 33.3334 21.567 32.6667 21.967 32.2667L24.5003 28.9334C24.767 23.8667 28.767 20 33.8337 20ZM33.8337 17.3334C27.7003 17.3334 22.6337 21.8667 21.967 27.8667L19.8337 30.6667C19.0337 31.7334 19.0337 33.0667 19.567 34.1334C20.1003 35.0667 20.9003 35.7334 21.8337 35.8667V37.3334C21.8337 39.8667 23.567 41.8667 25.8337 42.5334V46.6667H40.5003V39.3334C43.8337 37.0667 45.8337 33.4667 45.8337 29.3334C45.8337 22.6667 40.5003 17.3334 33.8337 17.3334ZM35.167 34.6667H32.5003V33.3334H35.167V34.6667ZM37.3003 28.6667C36.9003 29.2 36.5003 29.7334 35.8337 30.1334V32H31.8337V30.1334C29.967 29.0667 29.3003 26.5334 30.367 24.6667C31.4337 22.8 33.967 22.1334 35.8337 23.2C37.7003 24.2667 38.367 26.8 37.3003 28.6667Z" fill="#5885E9"/>
<rect x="2" y="1.5" width="61" height="61" rx="30.5" stroke="#5885E9" stroke-width="3"/>
</svg>
