<svg width="64" height="64" viewBox="0 0 64 64" fill="none" xmlns="http://www.w3.org/2000/svg">
<path d="M26.6667 38.6667C27.0444 38.6667 27.3613 38.5387 27.6173 38.2827C27.8724 38.0276 28 37.7111 28 37.3333V30.6667C28 30.2889 27.8724 29.972 27.6173 29.716C27.3613 29.4609 27.0444 29.3333 26.6667 29.3333C26.2889 29.3333 25.972 29.4609 25.716 29.716C25.4609 29.972 25.3333 30.2889 25.3333 30.6667V37.3333C25.3333 37.7111 25.4609 38.0276 25.716 38.2827C25.972 38.5387 26.2889 38.6667 26.6667 38.6667ZM32 38.6667C32.3778 38.6667 32.6947 38.5387 32.9507 38.2827C33.2058 38.0276 33.3333 37.7111 33.3333 37.3333V26.6667C33.3333 26.2889 33.2058 25.972 32.9507 25.716C32.6947 25.4609 32.3778 25.3333 32 25.3333C31.6222 25.3333 31.3058 25.4609 31.0507 25.716C30.7947 25.972 30.6667 26.2889 30.6667 26.6667V37.3333C30.6667 37.7111 30.7947 38.0276 31.0507 38.2827C31.3058 38.5387 31.6222 38.6667 32 38.6667ZM37.3333 38.6667C37.7111 38.6667 38.0276 38.5387 38.2827 38.2827C38.5387 38.0276 38.6667 37.7111 38.6667 37.3333V34.6667C38.6667 34.2889 38.5387 33.972 38.2827 33.716C38.0276 33.4609 37.7111 33.3333 37.3333 33.3333C36.9556 33.3333 36.6391 33.4609 36.384 33.716C36.128 33.972 36 34.2889 36 34.6667V37.3333C36 37.7111 36.128 38.0276 36.384 38.2827C36.6391 38.5387 36.9556 38.6667 37.3333 38.6667ZM22.6667 44C21.9333 44 21.3053 43.7391 20.7827 43.2173C20.2609 42.6947 20 42.0667 20 41.3333V22.6667C20 21.9333 20.2609 21.3053 20.7827 20.7827C21.3053 20.2609 21.9333 20 22.6667 20H33.3333C33.7111 20 34.028 20.1276 34.284 20.3827C34.5391 20.6387 34.6667 20.9556 34.6667 21.3333C34.6667 21.7111 34.5391 22.0276 34.284 22.2827C34.028 22.5387 33.7111 22.6667 33.3333 22.6667H22.6667V41.3333H41.3333V30.6667C41.3333 30.2889 41.4613 29.972 41.7173 29.716C41.9724 29.4609 42.2889 29.3333 42.6667 29.3333C43.0444 29.3333 43.3609 29.4609 43.616 29.716C43.872 29.972 44 30.2889 44 30.6667V41.3333C44 42.0667 43.7391 42.6947 43.2173 43.2173C42.6947 43.7391 42.0667 44 41.3333 44H22.6667ZM40 28C39.6222 28 39.3058 27.872 39.0507 27.616C38.7947 27.3609 38.6667 27.0444 38.6667 26.6667V25.3333H37.3333C36.9556 25.3333 36.6391 25.2058 36.384 24.9507C36.128 24.6947 36 24.3778 36 24C36 23.6222 36.128 23.3053 36.384 23.0493C36.6391 22.7942 36.9556 22.6667 37.3333 22.6667H38.6667V21.3333C38.6667 20.9556 38.7947 20.6387 39.0507 20.3827C39.3058 20.1276 39.6222 20 40 20C40.3778 20 40.6942 20.1276 40.9493 20.3827C41.2053 20.6387 41.3333 20.9556 41.3333 21.3333V22.6667H42.6667C43.0444 22.6667 43.3609 22.7942 43.616 23.0493C43.872 23.3053 44 23.6222 44 24C44 24.3778 43.872 24.6947 43.616 24.9507C43.3609 25.2058 43.0444 25.3333 42.6667 25.3333H41.3333V26.6667C41.3333 27.0444 41.2053 27.3609 40.9493 27.616C40.6942 27.872 40.3778 28 40 28Z" fill="#FFAE5F"/>
<rect x="1.5" y="1.5" width="61" height="61" rx="30.5" stroke="#FFAE5F" stroke-width="3"/>
</svg>
