<svg width="64" height="64" viewBox="0 0 64 64" fill="none" xmlns="http://www.w3.org/2000/svg">
<mask id="mask0_284_81" style="mask-type:alpha" maskUnits="userSpaceOnUse" x="16" y="16" width="32" height="32">
<rect x="16" y="16" width="32" height="32" fill="#D9D9D9"/>
</mask>
<g mask="url(#mask0_284_81)">
<path d="M26.6663 40.0001H37.333V37.3334H26.6663V40.0001ZM26.6663 34.6667H37.333V32.0001H26.6663V34.6667ZM23.9997 45.3334C23.2663 45.3334 22.6388 45.0725 22.117 44.5507C21.5943 44.0281 21.333 43.4001 21.333 42.6667V21.3334C21.333 20.6001 21.5943 19.9721 22.117 19.4494C22.6388 18.9276 23.2663 18.6667 23.9997 18.6667H34.6663L42.6663 26.6667V42.6667C42.6663 43.4001 42.4055 44.0281 41.8837 44.5507C41.361 45.0725 40.733 45.3334 39.9997 45.3334H23.9997ZM33.333 28.0001V21.3334H23.9997V42.6667H39.9997V28.0001H33.333Z" fill="#FF6442"/>
</g>
<rect x="1.5" y="1.5" width="61" height="61" rx="30.5" stroke="#FF6442" stroke-width="3"/>
</svg>
