<svg width="18" height="18" viewBox="0 0 18 18" fill="none" xmlns="http://www.w3.org/2000/svg">
<path fill-rule="evenodd" clip-rule="evenodd" d="M7.1998 3.60005C5.21158 3.60005 3.5998 5.21182 3.5998 7.20005C3.5998 9.18827 5.21158 10.8 7.1998 10.8C9.18803 10.8 10.7998 9.18827 10.7998 7.20005C10.7998 5.21182 9.18803 3.60005 7.1998 3.60005ZM1.7998 7.20005C1.7998 4.21771 4.21747 1.80005 7.1998 1.80005C10.1821 1.80005 12.5998 4.21771 12.5998 7.20005C12.5998 8.3663 12.2301 9.44619 11.6015 10.3289L15.9362 14.6637C16.2877 15.0151 16.2877 15.585 15.9362 15.9364C15.5847 16.2879 15.0149 16.2879 14.6634 15.9364L10.3287 11.6017C9.44595 12.2303 8.36605 12.6 7.1998 12.6C4.21747 12.6 1.7998 10.1824 1.7998 7.20005Z" fill="#D8D8D8"/>
</svg>
