<svg width="64" height="64" viewBox="0 0 64 64" fill="none" xmlns="http://www.w3.org/2000/svg">
<path d="M29.3333 22.6667L32 20M26.6667 37.3333L37.3333 26.6667M32 44L34.6667 41.3333M38 41.3333C38.8841 41.3333 39.7319 40.9821 40.357 40.357C40.9821 39.7319 41.3333 38.8841 41.3333 38C41.3333 37.1159 40.9821 36.2681 40.357 35.643C39.7319 35.0179 38.8841 34.6667 38 34.6667C37.1159 34.6667 36.2681 35.0179 35.643 35.643C35.0179 36.2681 34.6667 37.1159 34.6667 38C34.6667 38.8841 35.0179 39.7319 35.643 40.357C36.2681 40.9821 37.1159 41.3333 38 41.3333ZM26 29.3333C26.8841 29.3333 27.7319 28.9821 28.357 28.357C28.9821 27.7319 29.3333 26.8841 29.3333 26C29.3333 25.1159 28.9821 24.2681 28.357 23.643C27.7319 23.0179 26.8841 22.6667 26 22.6667C25.1159 22.6667 24.2681 23.0179 23.643 23.643C23.0179 24.2681 22.6667 25.1159 22.6667 26C22.6667 26.8841 23.0179 27.7319 23.643 28.357C24.2681 28.9821 25.1159 29.3333 26 29.3333ZM23.3333 44C24.2174 44 25.0652 43.6488 25.6904 43.0237C26.3155 42.3986 26.6667 41.5507 26.6667 40.6667C26.6667 39.7826 26.3155 38.9348 25.6904 38.3096C25.0652 37.6845 24.2174 37.3333 23.3333 37.3333C22.4493 37.3333 21.6014 37.6845 20.9763 38.3096C20.3512 38.9348 20 39.7826 20 40.6667C20 41.5507 20.3512 42.3986 20.9763 43.0237C21.6014 43.6488 22.4493 44 23.3333 44ZM40.6667 26.6667C41.5507 26.6667 42.3986 26.3155 43.0237 25.6904C43.6488 25.0652 44 24.2174 44 23.3333C44 22.4493 43.6488 21.6014 43.0237 20.9763C42.3986 20.3512 41.5507 20 40.6667 20C39.7826 20 38.9348 20.3512 38.3096 20.9763C37.6845 21.6014 37.3333 22.4493 37.3333 23.3333C37.3333 24.2174 37.6845 25.0652 38.3096 25.6904C38.9348 26.3155 39.7826 26.6667 40.6667 26.6667Z" stroke="#FF6442" stroke-width="2" stroke-linecap="round" stroke-linejoin="round"/>
<rect x="1.5" y="1.5" width="61" height="61" rx="30.5" stroke="#FF6442" stroke-width="3"/>
</svg>
