<svg width="32" height="28" viewBox="0 0 32 28" fill="none" xmlns="http://www.w3.org/2000/svg">
<path d="M31.47 8.11733L16.47 0.117334C16.3253 0.0402935 16.1639 0 16 0C15.8361 0 15.6747 0.0402935 15.53 0.117334L0.529993 8.11733C0.369998 8.2026 0.236194 8.32976 0.142893 8.4852C0.0495918 8.64065 0.000305176 8.81854 0.000305176 8.99983C0.000305176 9.18113 0.0495918 9.35902 0.142893 9.51446C0.236194 9.66991 0.369998 9.79707 0.529993 9.88233L3.99999 11.7336V17.7861C3.99895 18.2773 4.17973 18.7515 4.50749 19.1173C6.14499 20.9411 9.81374 23.9998 16 23.9998C18.0512 24.0168 20.087 23.6453 22 22.9048V26.9998C22 27.2651 22.1053 27.5194 22.2929 27.7069C22.4804 27.8945 22.7348 27.9998 23 27.9998C23.2652 27.9998 23.5196 27.8945 23.7071 27.7069C23.8946 27.5194 24 27.2651 24 26.9998V21.9386C25.304 21.1858 26.4824 20.2339 27.4925 19.1173C27.8203 18.7515 28.001 18.2773 28 17.7861V11.7336L31.47 9.88233C31.63 9.79707 31.7638 9.66991 31.8571 9.51446C31.9504 9.35902 31.9997 9.18113 31.9997 8.99983C31.9997 8.81854 31.9504 8.64065 31.8571 8.4852C31.7638 8.32976 31.63 8.2026 31.47 8.11733ZM16 21.9998C10.5912 21.9998 7.40999 19.3573 5.99999 17.7861V12.7998L15.53 17.8823C15.6747 17.9594 15.8361 17.9997 16 17.9997C16.1639 17.9997 16.3253 17.9594 16.47 17.8823L22 14.9336V20.7261C20.425 21.4611 18.44 21.9998 16 21.9998ZM26 17.7811C25.4006 18.4463 24.7299 19.0436 24 19.5623V13.8661L26 12.7998V17.7811ZM23.5 11.8673L23.4725 11.8511L16.4725 8.11733C16.2389 7.99804 15.9679 7.97527 15.7177 8.05392C15.4675 8.13257 15.2583 8.30635 15.135 8.53782C15.0117 8.76929 14.9843 9.03992 15.0587 9.29141C15.133 9.54289 15.3032 9.75511 15.5325 9.88233L21.375 12.9998L16 15.8661L3.12499 8.99983L16 2.13358L28.875 8.99983L23.5 11.8673Z" fill="#343330"/>
</svg>
