<svg width="21" height="16" viewBox="0 0 21 16" fill="none" xmlns="http://www.w3.org/2000/svg">
<g clip-path="url(#clip0_35_4751)">
<path d="M11.2381 6.26063C11.2381 6.51749 11.2215 6.77407 11.1885 7.02869L11.2062 6.89457C11.14 7.39853 11.0091 7.89132 10.817 8.36021L10.8666 8.23939C10.6776 8.69698 10.4321 9.12782 10.1361 9.52137L10.2128 9.41947C9.91778 9.80966 9.57578 10.16 9.19491 10.4622L9.29437 10.3837C8.91019 10.6869 8.48963 10.9384 8.043 11.132L8.16094 11.0813C7.70325 11.278 7.22222 11.4121 6.7303 11.48L6.86082 11.4619C6.36316 11.5291 5.85903 11.5291 5.36137 11.4619L5.4919 11.48C5.0001 11.4121 4.5192 11.278 4.06164 11.0813L4.17959 11.132C3.73295 10.9384 3.3124 10.6869 2.92821 10.3837L3.02768 10.4622C2.6469 10.1599 2.30491 9.80957 2.00983 9.41947L2.08846 9.52137C1.79167 9.12878 1.54513 8.6989 1.35486 8.24221L1.40439 8.36303C1.21232 7.89414 1.08145 7.40135 1.01518 6.89739L1.03287 7.03151C0.967216 6.52168 0.967216 6.00522 1.03287 5.49539L1.01518 5.62911C1.08145 5.12515 1.21232 4.63236 1.40439 4.16347L1.35486 4.2843C1.54385 3.82674 1.78934 3.3959 2.08531 3.00231L2.00669 3.10421C2.30176 2.71399 2.64374 2.3635 3.02453 2.06107L2.92507 2.14162C3.30916 1.83826 3.72973 1.58676 4.17644 1.39329L4.0585 1.44404C4.516 1.24709 4.99692 1.11301 5.48875 1.04531L5.35823 1.06343C5.85589 0.996171 6.36001 0.996171 6.85767 1.06343L6.72715 1.04531C7.21911 1.11301 7.70016 1.24708 8.1578 1.44404L8.03986 1.39329C8.48656 1.58676 8.90714 1.83826 9.29123 2.14162L9.19176 2.06107C9.57265 2.3634 9.91465 2.7139 10.2096 3.10421L10.1329 3.00231C10.4291 3.3958 10.6746 3.82666 10.8634 4.2843L10.8139 4.16347C11.0059 4.63236 11.1368 5.12515 11.2031 5.62911L11.1854 5.49539C11.2184 5.75001 11.235 6.00659 11.2349 6.26345C11.2368 6.39666 11.2885 6.52407 11.3792 6.61949C11.4718 6.71307 11.5963 6.76595 11.7264 6.7669C11.9925 6.75442 12.2182 6.54579 12.2178 6.26345C12.2184 5.61384 12.1201 4.96811 11.9265 4.34954C11.7398 3.7526 11.4657 3.1882 11.1134 2.67568C10.9279 2.40538 10.7231 2.14959 10.5005 1.91043C10.2752 1.67485 10.0329 1.45701 9.77558 1.25877C8.52549 0.293989 6.96117 -0.141475 5.40638 0.0425023C3.85159 0.226479 2.42536 1.01581 1.42287 2.24714C1.00521 2.75309 0.671567 3.32593 0.435294 3.94276C0.201385 4.53867 0.0599761 5.16842 0.016204 5.80914C-0.073638 7.07871 0.216637 8.34616 0.848286 9.44231C1.47993 10.5385 2.42291 11.4112 3.55134 11.944C4.15081 12.2317 4.79351 12.4134 5.45219 12.4812C6.689 12.6194 7.9375 12.3672 9.0305 11.7583C10.1235 11.1494 11.0088 10.2129 11.5679 9.07431C11.8476 8.50729 12.0397 7.89929 12.1376 7.27196C12.1897 6.93744 12.2172 6.59938 12.2197 6.26063C12.2183 6.12812 12.1672 6.00125 12.077 5.9062C11.9845 5.81242 11.8597 5.75951 11.7295 5.75879C11.4629 5.76927 11.2385 5.9783 11.2381 6.26063Z" fill="#5885E9"/>
<path d="M9.88988 10.5245L10.5547 11.2055L12.0801 12.7682L13.7596 14.4888L14.8997 15.6568C15.0459 15.8066 15.1627 15.9528 15.3994 15.9601C15.4721 15.9625 15.5452 15.9601 15.618 15.9601L17.0246 15.9657L19.2482 15.975L21.6704 15.9847L23.7147 15.9931L24.7916 15.9976H24.8407C25.0978 15.9976 25.3439 15.7652 25.3321 15.4941C25.3203 15.223 25.1163 14.9915 24.8407 14.9907L23.8972 14.9866L21.6445 14.9774L18.9208 14.9673L16.5619 14.9576C16.1806 14.9576 15.798 14.9459 15.4167 14.9532H15.401L15.7485 15.1006L15.2335 14.5746L13.9994 13.3103L12.5117 11.7855L11.2211 10.4632C11.0119 10.2494 10.8063 10.0311 10.592 9.81883L10.5834 9.80956C10.4014 9.62309 10.068 9.60818 9.8883 9.80956C9.70864 10.0109 9.69409 10.3227 9.8883 10.5216L9.88988 10.5245Z" fill="#5885E9"/>
</g>
<defs>
<clipPath id="clip0_35_4751">
<rect width="21" height="16" fill="white"/>
</clipPath>
</defs>
</svg>
