<svg width="64" height="64" viewBox="0 0 64 64" fill="none" xmlns="http://www.w3.org/2000/svg">
<g clip-path="url(#clip0_35_3691)">
<path d="M34.2392 21.837C33.539 21.5053 32.7739 21.3333 31.9992 21.3333C31.2244 21.3333 30.4593 21.5053 29.7592 21.837L16.7618 27.9943C16.5226 28.1072 16.3223 28.2887 16.1865 28.5156C16.0507 28.7426 15.9855 29.0049 15.9992 29.269V37.3383C15.9992 37.692 16.1396 38.0311 16.3897 38.2812C16.6397 38.5312 16.9789 38.6717 17.3325 38.6717C17.6861 38.6717 18.0252 38.5312 18.2753 38.2812C18.5253 38.0311 18.6658 37.692 18.6658 37.3383V31.349L21.3325 32.6717V40.005C21.3325 40.1804 21.3672 40.3541 21.4344 40.5161C21.5017 40.6781 21.6003 40.8252 21.7245 40.949L21.7912 41.013L21.9512 41.1597C22.7869 41.9045 23.6904 42.5696 24.6498 43.1464C26.4312 44.2183 29.0045 45.3383 31.9992 45.3383C34.9938 45.3383 37.5672 44.2183 39.3512 43.1464C40.3106 42.5696 41.2141 41.9045 42.0498 41.1597L42.2098 41.013L42.2712 40.949H42.2765C42.4005 40.8246 42.4988 40.677 42.5656 40.5145C42.6324 40.3521 42.6665 40.178 42.6658 40.0023V32.669L47.2578 30.3917C47.4823 30.2805 47.6709 30.1084 47.8021 29.8949C47.9332 29.6815 48.0016 29.4355 47.9994 29.185C47.9971 28.9345 47.9244 28.6897 47.7895 28.4787C47.6545 28.2676 47.4629 28.0988 47.2365 27.9917L34.2392 21.837ZM34.3245 36.8103L39.9992 33.9943V39.413C39.3666 39.9496 38.6915 40.4338 37.9805 40.861C36.4338 41.789 34.3378 42.6717 31.9992 42.6717C29.6605 42.6717 27.5672 41.7917 26.0178 40.861C25.3068 40.4338 24.6317 39.9496 23.9992 39.413V33.9943L29.6738 36.8103C31.1405 37.5357 32.8578 37.5357 34.3245 36.8103ZM33.0978 24.2477L43.6098 29.2263L33.1378 34.421C32.7838 34.5964 32.3942 34.6876 31.9992 34.6876C31.6041 34.6876 31.2145 34.5964 30.8605 34.421L20.3885 29.2263L30.9005 24.2477C31.2439 24.0849 31.6191 24.0005 31.9992 24.0005C32.3792 24.0005 32.7544 24.0849 33.0978 24.2477Z" fill="#9284F1"/>
</g>
<rect x="1.5" y="1.5" width="61" height="61" rx="30.5" stroke="#9284F1" stroke-width="3"/>
<defs>
<clipPath id="clip0_35_3691">
<rect width="32" height="32" fill="white" transform="translate(16 16)"/>
</clipPath>
</defs>
</svg>
