<svg width="30" height="34" viewBox="0 0 30 34" fill="none" xmlns="http://www.w3.org/2000/svg">
<path d="M15 20.1667C14.5278 20.1667 14.1322 20.0067 13.8133 19.6867C13.4933 19.3678 13.3333 18.9722 13.3333 18.5C13.3333 18.0278 13.4933 17.6317 13.8133 17.3117C14.1322 16.9928 14.5278 16.8334 15 16.8334C15.4722 16.8334 15.8683 16.9928 16.1883 17.3117C16.5072 17.6317 16.6667 18.0278 16.6667 18.5C16.6667 18.9722 16.5072 19.3678 16.1883 19.6867C15.8683 20.0067 15.4722 20.1667 15 20.1667ZM8.33333 20.1667C7.86111 20.1667 7.465 20.0067 7.145 19.6867C6.82611 19.3678 6.66667 18.9722 6.66667 18.5C6.66667 18.0278 6.82611 17.6317 7.145 17.3117C7.465 16.9928 7.86111 16.8334 8.33333 16.8334C8.80556 16.8334 9.20167 16.9928 9.52167 17.3117C9.84056 17.6317 10 18.0278 10 18.5C10 18.9722 9.84056 19.3678 9.52167 19.6867C9.20167 20.0067 8.80556 20.1667 8.33333 20.1667ZM21.6667 20.1667C21.1944 20.1667 20.7989 20.0067 20.48 19.6867C20.16 19.3678 20 18.9722 20 18.5C20 18.0278 20.16 17.6317 20.48 17.3117C20.7989 16.9928 21.1944 16.8334 21.6667 16.8334C22.1389 16.8334 22.5344 16.9928 22.8533 17.3117C23.1733 17.6317 23.3333 18.0278 23.3333 18.5C23.3333 18.9722 23.1733 19.3678 22.8533 19.6867C22.5344 20.0067 22.1389 20.1667 21.6667 20.1667ZM15 26.8334C14.5278 26.8334 14.1322 26.6734 13.8133 26.3534C13.4933 26.0345 13.3333 25.6389 13.3333 25.1667C13.3333 24.6945 13.4933 24.2989 13.8133 23.98C14.1322 23.66 14.5278 23.5 15 23.5C15.4722 23.5 15.8683 23.66 16.1883 23.98C16.5072 24.2989 16.6667 24.6945 16.6667 25.1667C16.6667 25.6389 16.5072 26.0345 16.1883 26.3534C15.8683 26.6734 15.4722 26.8334 15 26.8334ZM8.33333 26.8334C7.86111 26.8334 7.465 26.6734 7.145 26.3534C6.82611 26.0345 6.66667 25.6389 6.66667 25.1667C6.66667 24.6945 6.82611 24.2989 7.145 23.98C7.465 23.66 7.86111 23.5 8.33333 23.5C8.80556 23.5 9.20167 23.66 9.52167 23.98C9.84056 24.2989 10 24.6945 10 25.1667C10 25.6389 9.84056 26.0345 9.52167 26.3534C9.20167 26.6734 8.80556 26.8334 8.33333 26.8334ZM21.6667 26.8334C21.1944 26.8334 20.7989 26.6734 20.48 26.3534C20.16 26.0345 20 25.6389 20 25.1667C20 24.6945 20.16 24.2989 20.48 23.98C20.7989 23.66 21.1944 23.5 21.6667 23.5C22.1389 23.5 22.5344 23.66 22.8533 23.98C23.1733 24.2989 23.3333 24.6945 23.3333 25.1667C23.3333 25.6389 23.1733 26.0345 22.8533 26.3534C22.5344 26.6734 22.1389 26.8334 21.6667 26.8334ZM3.33333 33.5C2.41667 33.5 1.63167 33.1739 0.978333 32.5217C0.326111 31.8684 0 31.0834 0 30.1667V6.83335C0 5.91669 0.326111 5.13224 0.978333 4.48002C1.63167 3.82669 2.41667 3.50002 3.33333 3.50002H5V1.83335C5 1.36113 5.15944 0.96502 5.47833 0.64502C5.79833 0.326131 6.19444 0.166687 6.66667 0.166687C7.13889 0.166687 7.535 0.326131 7.855 0.64502C8.17389 0.96502 8.33333 1.36113 8.33333 1.83335V3.50002H21.6667V1.83335C21.6667 1.36113 21.8267 0.96502 22.1467 0.64502C22.4656 0.326131 22.8611 0.166687 23.3333 0.166687C23.8056 0.166687 24.2011 0.326131 24.52 0.64502C24.84 0.96502 25 1.36113 25 1.83335V3.50002H26.6667C27.5833 3.50002 28.3683 3.82669 29.0217 4.48002C29.6739 5.13224 30 5.91669 30 6.83335V30.1667C30 31.0834 29.6739 31.8684 29.0217 32.5217C28.3683 33.1739 27.5833 33.5 26.6667 33.5H3.33333ZM3.33333 30.1667H26.6667V13.5H3.33333V30.1667ZM3.33333 10.1667H26.6667V6.83335H3.33333V10.1667Z" fill="#111111"/>
</svg>
